<svg xmlns="http://www.w3.org/2000/svg" xmlns:xlink="http://www.w3.org/1999/xlink" width="405" zoomAndPan="magnify" viewBox="0 0 303.75 259.499997" height="346" preserveAspectRatio="xMidYMid meet" version="1.0"><defs><g/><clipPath id="70d2f4adcc"><path d="M 93.0625 75.011719 L 204 75.011719 L 204 120 L 93.0625 120 Z M 93.0625 75.011719 " clip-rule="nonzero"/></clipPath></defs><g clip-path="url(#70d2f4adcc)"><path fill="#df2121" d="M 132.828125 80.070312 C 134.234375 80.242188 135.675781 80.382812 137.148438 80.453125 C 140.394531 78.28125 144.867188 77.5 149.832031 77.714844 C 150.496094 76.6875 151.566406 75.542969 154.035156 75.414062 C 161.902344 75.003906 171.472656 77.816406 178.964844 82.023438 C 178.976562 79.746094 179.136719 78 180.757812 78.71875 C 181.761719 79.167969 185.320312 80.601562 184.367188 83.140625 C 185.582031 83.328125 191.910156 86.21875 195.257812 90.628906 C 197.183594 90.945312 202.789062 93.203125 203.804688 94.878906 C 204.519531 96.054688 202.355469 97.804688 202.582031 99.914062 C 203 103.734375 201.589844 105.40625 199.605469 105.785156 C 199.335938 107.097656 198.5625 108.089844 197.820312 109.105469 C 198.148438 107.871094 198.375 106.691406 197.972656 105.832031 C 196.207031 105.644531 194.273438 104.765625 192.816406 103.636719 C 191.195312 102.378906 190.011719 102.484375 189.3125 103.175781 C 187.734375 104.75 188.421875 108.738281 193.277344 111.660156 C 194.15625 111.433594 194.695312 110.441406 195.1875 109.332031 C 195.136719 110.367188 195.121094 111.410156 194.636719 112.394531 C 195.023438 112.582031 195.433594 112.765625 195.863281 112.9375 C 194.691406 114.289062 192.671875 115.976562 190.28125 116.847656 C 189.039062 117.300781 188.199219 115.261719 187.394531 113.035156 C 181.132812 111.519531 176.941406 113.390625 173.140625 115.433594 C 174.261719 115.835938 175.433594 116.355469 176.660156 117.015625 C 175.308594 116.402344 174.023438 115.949219 172.792969 115.621094 C 168.339844 118.042969 164.359375 120.5625 158.109375 117.902344 C 163.949219 119.746094 167.769531 117.574219 171.753906 115.375 C 158.671875 112.59375 152.054688 124.457031 140.191406 117.199219 C 152.65625 123.265625 159.046875 111.046875 172.210938 115.121094 C 176.257812 112.902344 180.554688 110.808594 187.367188 112.960938 C 186.597656 110.828125 185.851562 108.554688 184.8125 108.15625 C 182.8125 108.339844 177.222656 110.335938 175.222656 113.40625 C 174.28125 112.222656 173.5625 111.042969 173.035156 109.878906 C 172.019531 110.660156 170.988281 111.585938 169.957031 112.691406 C 170.667969 111.207031 171.59375 109.96875 172.644531 108.921875 C 172.257812 107.871094 172.027344 106.835938 171.925781 105.828125 C 171.1875 106.324219 170.414062 106.875 169.609375 107.496094 C 170.300781 106.488281 171.0625 105.613281 171.867188 104.84375 C 171.84375 103.4375 172.078125 102.097656 172.5 100.859375 C 171.675781 101.351562 170.824219 101.921875 169.953125 102.582031 C 170.863281 101.507812 171.855469 100.601562 172.902344 99.832031 C 174.4375 96.394531 177.457031 93.925781 180.351562 93.320312 C 177.292969 94.605469 175.242188 96.632812 174.101562 99.027344 C 179.160156 95.910156 185.066406 95.660156 188.269531 95.65625 C 187.527344 96.476562 186.992188 97.339844 186.871094 98.234375 C 184.953125 98.25 180.136719 96.804688 173.609375 100.238281 C 173.21875 101.394531 173.019531 102.613281 173 103.863281 C 177.710938 100.125 183.476562 99.667969 186.203125 99.683594 C 185.886719 100.410156 185.632812 101.148438 185.570312 101.898438 C 182.816406 101.890625 179.132812 101.382812 173.042969 105.117188 C 173.121094 106.09375 173.304688 107.082031 173.59375 108.0625 C 177.472656 104.828125 182.570312 103.847656 185.257812 103.382812 C 184.96875 104.078125 184.886719 104.78125 185.019531 105.484375 C 182.660156 105.746094 178.515625 106.066406 173.976562 109.195312 C 174.328125 110.128906 174.777344 111.050781 175.3125 111.941406 C 178.113281 108.5 182.066406 107.832031 185.121094 106.90625 C 187.863281 108.695312 188.050781 115.597656 190.316406 115.390625 C 192.035156 115.234375 193.125 113.871094 193.839844 113.230469 C 190.542969 111.890625 184.835938 106.132812 188.925781 102.171875 C 191.496094 99.679688 197.203125 98.433594 199.917969 98.65625 C 195.105469 99.367188 191.4375 101.355469 193.507812 102.796875 C 199.039062 106.652344 202.472656 105.40625 201.695312 98.699219 C 201.453125 91.332031 188.746094 89.625 183.8125 91.519531 C 186.035156 90.1875 188.421875 89.746094 191.132812 89.949219 C 190.964844 89.535156 190.632812 89.109375 190.398438 88.980469 C 189.539062 88.800781 187.421875 89.082031 186.417969 89.335938 C 187.695312 88.558594 189.648438 88.28125 190.566406 88.191406 C 191.019531 88.351562 191.894531 89.121094 192.628906 90.125 C 193.003906 90.183594 193.382812 90.25 193.769531 90.328125 C 191.421875 87.546875 187.140625 84.5625 183.457031 83.480469 C 184.546875 81.183594 181.789062 79.902344 180.894531 79.683594 C 179.742188 79.40625 179.746094 85.507812 180.503906 86.210938 C 179.871094 85.78125 179.054688 84.300781 178.945312 82.945312 C 172.121094 79.40625 163.253906 76.042969 154.09375 76.316406 C 152.640625 76.355469 151.632812 76.96875 150.859375 77.773438 C 160.347656 78.433594 171.402344 82.542969 179.085938 87.464844 C 174.460938 85.050781 161.488281 79.511719 150.214844 78.546875 C 150.019531 78.808594 149.839844 79.082031 149.667969 79.347656 C 145.382812 80.628906 141.144531 81.082031 136.957031 80.710938 C 136.507812 80.984375 136.074219 81.28125 135.667969 81.613281 C 136.023438 81.285156 136.402344 80.980469 136.796875 80.695312 C 135.46875 80.570312 134.148438 80.363281 132.828125 80.070312 Z M 116.53125 109.414062 C 125.644531 114.148438 129.34375 105.6875 136.664062 110.652344 C 129.050781 107.085938 125.542969 116.078125 116.53125 109.414062 Z M 102.894531 106.078125 C 115.890625 99.320312 121.167969 111.390625 131.609375 104.308594 C 120.75 109.394531 115.746094 96.570312 102.894531 106.078125 Z M 93.226562 96.242188 C 100.859375 92.273438 103.960938 99.363281 110.09375 95.203125 C 103.714844 98.191406 100.777344 90.65625 93.226562 96.242188 Z M 98.898438 92.585938 C 111.894531 85.828125 117.171875 97.898438 127.613281 90.816406 C 116.753906 95.902344 111.75 83.078125 98.898438 92.585938 Z M 125.65625 116.472656 C 138.652344 109.71875 143.929688 121.789062 154.371094 114.707031 C 143.511719 119.789062 138.507812 106.96875 125.65625 116.472656 Z M 103.132812 103.453125 C 124.496094 92.347656 133.171875 112.1875 150.332031 100.546875 C 132.484375 108.902344 124.261719 87.828125 103.132812 103.453125 Z M 160.328125 86.789062 C 159.796875 86.546875 159.273438 86.332031 158.757812 86.125 C 153.621094 86.757812 149.203125 88.800781 144.820312 90.289062 C 153.554688 87.882812 162.105469 84.058594 174.039062 94.101562 C 154.039062 82.300781 143.261719 101.132812 127.585938 89.628906 C 123.171875 90.574219 118.578125 90.359375 113.128906 87.027344 C 129.535156 93.617188 137.8125 75.878906 155.453125 84.015625 C 160.546875 83.089844 166.25 83.769531 173.453125 88.617188 C 168 86.148438 163.375 85.636719 159.222656 86.074219 C 159.589844 86.300781 159.957031 86.539062 160.328125 86.789062 Z M 153.234375 84.519531 C 142.949219 82.640625 135.757812 87.710938 128.113281 89.507812 C 137.972656 92.496094 144.933594 86.773438 153.234375 84.519531 Z M 169.207031 112.878906 C 154.875 102.652344 145.566406 116.414062 134.445312 106.195312 C 146.550781 114.0625 155.699219 99.347656 169.207031 112.878906 Z M 169.113281 112.960938 C 158.066406 107.957031 153.582031 118.511719 144.710938 113.085938 C 153.9375 116.789062 158.1875 105.609375 169.113281 112.960938 Z M 165.578125 105.589844 C 151.757812 99.328125 146.144531 112.539062 135.042969 105.746094 C 146.589844 111.363281 151.910156 98.242188 165.578125 105.589844 Z M 168.992188 98.929688 C 152.488281 91.449219 145.785156 107.226562 132.527344 99.117188 C 146.316406 105.824219 152.667969 90.152344 168.992188 98.929688 Z M 170.289062 97.734375 C 151.425781 88.066406 142.714844 106.113281 127.679688 95.890625 C 143.414062 104.503906 151.710938 86.5625 170.289062 97.734375 Z M 137.382812 80.460938 C 141.15625 80.617188 145.121094 80.292969 149.175781 78.816406 C 149.242188 78.714844 149.308594 78.601562 149.378906 78.480469 C 144.832031 78.183594 140.609375 78.671875 137.382812 80.460938 Z M 174.058594 94.921875 C 152.695312 85.242188 144.023438 105.65625 126.863281 95.160156 C 144.707031 103.84375 152.933594 83.5625 174.058594 94.921875 Z M 174.058594 94.921875 " fill-opacity="1" fill-rule="evenodd"/></g><g fill="#df2121" fill-opacity="1"><g transform="translate(75.597957, 151.145832)"><g><path d="M 22.6875 -27.140625 C 22.507812 -25.328125 22.421875 -23.691406 22.421875 -22.234375 C 22.421875 -20.953125 22.457031 -19.90625 22.53125 -19.09375 L 21.65625 -19.09375 C 21.445312 -21.050781 21.1875 -22.507812 20.875 -23.46875 C 20.570312 -24.425781 20.035156 -25.128906 19.265625 -25.578125 C 18.503906 -26.023438 17.332031 -26.25 15.75 -26.25 L 13.6875 -26.25 L 13.6875 -4.453125 C 13.6875 -3.378906 13.785156 -2.597656 13.984375 -2.109375 C 14.191406 -1.617188 14.550781 -1.285156 15.0625 -1.109375 C 15.570312 -0.929688 16.398438 -0.816406 17.546875 -0.765625 L 17.546875 0 C 16.222656 -0.0703125 14.347656 -0.109375 11.921875 -0.109375 C 9.367188 -0.109375 7.476562 -0.0703125 6.25 0 L 6.25 -0.765625 C 7.394531 -0.816406 8.222656 -0.929688 8.734375 -1.109375 C 9.242188 -1.285156 9.601562 -1.617188 9.8125 -2.109375 C 10.019531 -2.597656 10.125 -3.378906 10.125 -4.453125 L 10.125 -26.25 L 8.046875 -26.25 C 6.460938 -26.25 5.285156 -26.023438 4.515625 -25.578125 C 3.753906 -25.128906 3.21875 -24.425781 2.90625 -23.46875 C 2.601562 -22.507812 2.347656 -21.050781 2.140625 -19.09375 L 1.265625 -19.09375 C 1.335938 -19.90625 1.375 -20.953125 1.375 -22.234375 C 1.375 -23.691406 1.285156 -25.328125 1.109375 -27.140625 C 3.234375 -27.054688 6.835938 -27.015625 11.921875 -27.015625 C 16.984375 -27.015625 20.570312 -27.054688 22.6875 -27.140625 Z M 22.6875 -27.140625 "/></g></g></g><g fill="#df2121" fill-opacity="1"><g transform="translate(99.397745, 151.145832)"><g><path d="M 21.734375 -3.21875 C 22.347656 -1.632812 23.226562 -0.816406 24.375 -0.765625 L 24.375 0 C 23.351562 -0.0703125 21.988281 -0.109375 20.28125 -0.109375 C 18.082031 -0.109375 16.445312 -0.0703125 15.375 0 L 15.375 -0.765625 C 16.34375 -0.816406 17.035156 -0.9375 17.453125 -1.125 C 17.878906 -1.320312 18.09375 -1.675781 18.09375 -2.1875 C 18.09375 -2.625 17.9375 -3.222656 17.625 -3.984375 L 15.296875 -10.265625 L 6.015625 -10.265625 L 4.453125 -6.203125 C 3.929688 -4.828125 3.671875 -3.78125 3.671875 -3.0625 C 3.671875 -2.269531 3.945312 -1.695312 4.5 -1.34375 C 5.050781 -0.988281 5.890625 -0.796875 7.015625 -0.765625 L 7.015625 0 C 5.554688 -0.0703125 4.085938 -0.109375 2.609375 -0.109375 C 1.453125 -0.109375 0.492188 -0.0703125 -0.265625 0 L -0.265625 -0.765625 C 1.003906 -1.066406 2.015625 -2.175781 2.765625 -4.09375 L 11.765625 -27.328125 L 12.375 -27.328125 Z M 14.984375 -11.03125 L 10.6875 -22.5 L 6.328125 -11.03125 Z M 14.984375 -11.03125 "/></g></g></g><g fill="#df2121" fill-opacity="1"><g transform="translate(123.542456, 151.145832)"><g><path d="M 11.390625 -26.375 C 10.460938 -26.320312 9.785156 -26.21875 9.359375 -26.0625 C 8.941406 -25.90625 8.65625 -25.609375 8.5 -25.171875 C 8.351562 -24.742188 8.28125 -24.046875 8.28125 -23.078125 L 8.28125 -4.0625 C 8.28125 -3.09375 8.351562 -2.390625 8.5 -1.953125 C 8.65625 -1.515625 8.941406 -1.222656 9.359375 -1.078125 C 9.785156 -0.941406 10.460938 -0.875 11.390625 -0.875 L 14.1875 -0.875 C 15.769531 -0.875 16.972656 -1.097656 17.796875 -1.546875 C 18.628906 -1.992188 19.238281 -2.71875 19.625 -3.71875 C 20.007812 -4.71875 20.289062 -6.160156 20.46875 -8.046875 L 21.34375 -8.046875 C 21.269531 -7.253906 21.234375 -6.207031 21.234375 -4.90625 C 21.234375 -3.445312 21.320312 -1.8125 21.5 0 C 19.757812 -0.0703125 16.832031 -0.109375 12.71875 -0.109375 C 7.8125 -0.109375 4.109375 -0.0703125 1.609375 0 L 1.609375 -0.765625 C 2.523438 -0.816406 3.191406 -0.914062 3.609375 -1.0625 C 4.035156 -1.21875 4.328125 -1.515625 4.484375 -1.953125 C 4.640625 -2.390625 4.71875 -3.09375 4.71875 -4.0625 L 4.71875 -23.078125 C 4.71875 -24.046875 4.640625 -24.742188 4.484375 -25.171875 C 4.328125 -25.609375 4.035156 -25.90625 3.609375 -26.0625 C 3.191406 -26.21875 2.523438 -26.320312 1.609375 -26.375 L 1.609375 -27.140625 C 2.679688 -27.054688 4.316406 -27.015625 6.515625 -27.015625 C 8.554688 -27.015625 10.179688 -27.054688 11.390625 -27.140625 Z M 11.390625 -26.375 "/></g></g></g><g fill="#df2121" fill-opacity="1"><g transform="translate(146.077522, 151.145832)"><g><path d="M 21.6875 -3.109375 C 22.125 -2.460938 22.601562 -1.953125 23.125 -1.578125 C 23.65625 -1.210938 24.300781 -0.941406 25.0625 -0.765625 L 25.0625 0 C 23.84375 -0.0703125 22.3125 -0.109375 20.46875 -0.109375 C 19.082031 -0.109375 17.765625 -0.0703125 16.515625 0 L 16.515625 -0.765625 C 17.128906 -0.796875 17.578125 -0.875 17.859375 -1 C 18.140625 -1.125 18.28125 -1.316406 18.28125 -1.578125 C 18.28125 -1.828125 18.15625 -2.128906 17.90625 -2.484375 L 12.296875 -10.921875 C 11.554688 -12.046875 10.929688 -12.78125 10.421875 -13.125 C 9.910156 -13.46875 9.195312 -13.664062 8.28125 -13.71875 L 8.28125 -4.0625 C 8.28125 -3.09375 8.351562 -2.390625 8.5 -1.953125 C 8.65625 -1.515625 8.941406 -1.21875 9.359375 -1.0625 C 9.785156 -0.914062 10.460938 -0.816406 11.390625 -0.765625 L 11.390625 0 C 10.210938 -0.0703125 8.585938 -0.109375 6.515625 -0.109375 C 4.316406 -0.109375 2.679688 -0.0703125 1.609375 0 L 1.609375 -0.765625 C 2.523438 -0.816406 3.191406 -0.914062 3.609375 -1.0625 C 4.035156 -1.21875 4.328125 -1.515625 4.484375 -1.953125 C 4.640625 -2.390625 4.71875 -3.09375 4.71875 -4.0625 L 4.71875 -23.078125 C 4.71875 -24.046875 4.640625 -24.742188 4.484375 -25.171875 C 4.328125 -25.609375 4.035156 -25.90625 3.609375 -26.0625 C 3.191406 -26.21875 2.523438 -26.320312 1.609375 -26.375 L 1.609375 -27.140625 C 2.679688 -27.054688 4.316406 -27.015625 6.515625 -27.015625 C 8.554688 -27.015625 10.179688 -27.054688 11.390625 -27.140625 L 11.390625 -26.375 C 10.460938 -26.320312 9.785156 -26.21875 9.359375 -26.0625 C 8.941406 -25.90625 8.65625 -25.609375 8.5 -25.171875 C 8.351562 -24.742188 8.28125 -24.046875 8.28125 -23.078125 L 8.28125 -14.484375 C 10.144531 -14.566406 11.597656 -15.285156 12.640625 -16.640625 L 16.328125 -21.3125 C 17.628906 -22.914062 18.28125 -24.140625 18.28125 -24.984375 C 18.28125 -25.878906 17.488281 -26.34375 15.90625 -26.375 L 15.90625 -27.140625 C 17.363281 -27.054688 18.832031 -27.015625 20.3125 -27.015625 C 21.71875 -27.015625 22.804688 -27.054688 23.578125 -27.140625 L 23.578125 -26.375 C 22.734375 -26.238281 21.9375 -25.957031 21.1875 -25.53125 C 20.445312 -25.113281 19.734375 -24.460938 19.046875 -23.578125 L 12.796875 -15.5625 Z M 21.6875 -3.109375 "/></g></g></g><g fill="#df2121" fill-opacity="1"><g transform="translate(171.180362, 151.145832)"><g><path d="M 11.390625 -26.375 C 10.460938 -26.320312 9.785156 -26.21875 9.359375 -26.0625 C 8.941406 -25.90625 8.65625 -25.609375 8.5 -25.171875 C 8.351562 -24.742188 8.28125 -24.046875 8.28125 -23.078125 L 8.28125 -4.0625 C 8.28125 -3.09375 8.351562 -2.390625 8.5 -1.953125 C 8.65625 -1.515625 8.941406 -1.21875 9.359375 -1.0625 C 9.785156 -0.914062 10.460938 -0.816406 11.390625 -0.765625 L 11.390625 0 C 10.210938 -0.0703125 8.585938 -0.109375 6.515625 -0.109375 C 4.316406 -0.109375 2.679688 -0.0703125 1.609375 0 L 1.609375 -0.765625 C 2.523438 -0.816406 3.191406 -0.914062 3.609375 -1.0625 C 4.035156 -1.21875 4.328125 -1.515625 4.484375 -1.953125 C 4.640625 -2.390625 4.71875 -3.09375 4.71875 -4.0625 L 4.71875 -23.078125 C 4.71875 -24.046875 4.640625 -24.742188 4.484375 -25.171875 C 4.328125 -25.609375 4.035156 -25.90625 3.609375 -26.0625 C 3.191406 -26.21875 2.523438 -26.320312 1.609375 -26.375 L 1.609375 -27.140625 C 2.679688 -27.054688 4.316406 -27.015625 6.515625 -27.015625 C 8.554688 -27.015625 10.179688 -27.054688 11.390625 -27.140625 Z M 11.390625 -26.375 "/></g></g></g><g fill="#df2121" fill-opacity="1"><g transform="translate(184.172518, 151.145832)"><g><path d="M 21.234375 -4.90625 C 21.234375 -3.445312 21.320312 -1.8125 21.5 0 C 19.757812 -0.0703125 16.832031 -0.109375 12.71875 -0.109375 C 7.8125 -0.109375 4.109375 -0.0703125 1.609375 0 L 1.609375 -0.765625 C 2.523438 -0.816406 3.191406 -0.914062 3.609375 -1.0625 C 4.035156 -1.21875 4.328125 -1.515625 4.484375 -1.953125 C 4.640625 -2.390625 4.71875 -3.09375 4.71875 -4.0625 L 4.71875 -23.078125 C 4.71875 -24.046875 4.640625 -24.742188 4.484375 -25.171875 C 4.328125 -25.609375 4.035156 -25.90625 3.609375 -26.0625 C 3.191406 -26.21875 2.523438 -26.320312 1.609375 -26.375 L 1.609375 -27.140625 C 4.109375 -27.054688 7.8125 -27.015625 12.71875 -27.015625 C 16.476562 -27.015625 19.148438 -27.054688 20.734375 -27.140625 C 20.554688 -25.453125 20.46875 -23.941406 20.46875 -22.609375 C 20.46875 -21.617188 20.503906 -20.828125 20.578125 -20.234375 L 19.703125 -20.234375 C 19.523438 -21.898438 19.296875 -23.132812 19.015625 -23.9375 C 18.734375 -24.738281 18.257812 -25.320312 17.59375 -25.6875 C 16.925781 -26.0625 15.914062 -26.25 14.5625 -26.25 L 11.390625 -26.25 C 10.460938 -26.25 9.785156 -26.175781 9.359375 -26.03125 C 8.941406 -25.894531 8.65625 -25.609375 8.5 -25.171875 C 8.351562 -24.742188 8.28125 -24.046875 8.28125 -23.078125 L 8.28125 -14.03125 L 10.8125 -14.03125 C 11.707031 -14.03125 12.394531 -14.238281 12.875 -14.65625 C 13.363281 -15.082031 13.691406 -15.582031 13.859375 -16.15625 C 14.023438 -16.726562 14.160156 -17.453125 14.265625 -18.328125 L 14.375 -19.09375 L 15.25 -19.09375 C 15.175781 -18.019531 15.140625 -16.816406 15.140625 -15.484375 L 15.140625 -13.640625 C 15.140625 -12.335938 15.21875 -10.523438 15.375 -8.203125 L 14.484375 -8.203125 C 14.460938 -8.378906 14.382812 -9 14.25 -10.0625 C 14.125 -11.125 13.773438 -11.921875 13.203125 -12.453125 C 12.628906 -12.992188 11.832031 -13.265625 10.8125 -13.265625 L 8.28125 -13.265625 L 8.28125 -4.0625 C 8.28125 -3.09375 8.351562 -2.390625 8.5 -1.953125 C 8.65625 -1.515625 8.941406 -1.222656 9.359375 -1.078125 C 9.785156 -0.941406 10.460938 -0.875 11.390625 -0.875 L 14.1875 -0.875 C 15.769531 -0.875 16.972656 -1.082031 17.796875 -1.5 C 18.628906 -1.925781 19.238281 -2.601562 19.625 -3.53125 C 20.007812 -4.46875 20.289062 -5.847656 20.46875 -7.671875 L 21.34375 -7.671875 C 21.269531 -6.972656 21.234375 -6.050781 21.234375 -4.90625 Z M 21.234375 -4.90625 "/></g></g></g><g fill="#df2121" fill-opacity="1"><g transform="translate(207.512406, 151.145832)"><g><path d="M 9.8125 -27.5625 C 10.9375 -27.5625 11.820312 -27.4375 12.46875 -27.1875 C 13.125 -26.945312 13.796875 -26.597656 14.484375 -26.140625 C 15.046875 -25.785156 15.484375 -25.609375 15.796875 -25.609375 C 16.023438 -25.609375 16.203125 -25.738281 16.328125 -26 C 16.453125 -26.269531 16.554688 -26.703125 16.640625 -27.296875 L 17.515625 -27.296875 C 17.390625 -25.804688 17.328125 -23.195312 17.328125 -19.46875 L 16.4375 -19.46875 C 16.289062 -21.539062 15.695312 -23.285156 14.65625 -24.703125 C 13.625 -26.117188 12.125 -26.828125 10.15625 -26.828125 C 8.78125 -26.828125 7.65625 -26.410156 6.78125 -25.578125 C 5.914062 -24.753906 5.484375 -23.691406 5.484375 -22.390625 C 5.484375 -21.410156 5.707031 -20.5625 6.15625 -19.84375 C 6.601562 -19.132812 7.171875 -18.523438 7.859375 -18.015625 C 8.546875 -17.503906 9.53125 -16.851562 10.8125 -16.0625 L 11.921875 -15.375 C 13.523438 -14.375 14.789062 -13.492188 15.71875 -12.734375 C 16.65625 -11.984375 17.40625 -11.125 17.96875 -10.15625 C 18.53125 -9.1875 18.8125 -8.050781 18.8125 -6.75 C 18.8125 -4.425781 18.046875 -2.628906 16.515625 -1.359375 C 14.984375 -0.0976562 13.039062 0.53125 10.6875 0.53125 C 9.46875 0.53125 8.46875 0.398438 7.6875 0.140625 C 6.90625 -0.109375 6.15625 -0.445312 5.4375 -0.875 C 4.875 -1.238281 4.441406 -1.421875 4.140625 -1.421875 C 3.910156 -1.421875 3.726562 -1.285156 3.59375 -1.015625 C 3.46875 -0.742188 3.367188 -0.316406 3.296875 0.265625 L 2.421875 0.265625 C 2.515625 -1.140625 2.5625 -4.207031 2.5625 -8.9375 L 3.453125 -8.9375 C 3.628906 -6.351562 4.265625 -4.253906 5.359375 -2.640625 C 6.460938 -1.035156 8.148438 -0.234375 10.421875 -0.234375 C 11.804688 -0.234375 12.984375 -0.660156 13.953125 -1.515625 C 14.921875 -2.367188 15.40625 -3.640625 15.40625 -5.328125 C 15.40625 -6.753906 14.925781 -7.96875 13.96875 -8.96875 C 13.007812 -9.96875 11.492188 -11.09375 9.421875 -12.34375 C 7.921875 -13.257812 6.703125 -14.078125 5.765625 -14.796875 C 4.835938 -15.515625 4.078125 -16.375 3.484375 -17.375 C 2.898438 -18.382812 2.609375 -19.566406 2.609375 -20.921875 C 2.609375 -23.066406 3.296875 -24.707031 4.671875 -25.84375 C 6.054688 -26.988281 7.769531 -27.5625 9.8125 -27.5625 Z M 9.8125 -27.5625 "/></g></g></g><path stroke-linecap="round" transform="matrix(0.755174, 0, 0, 0.749174, 75.984247, 119.855446)" fill="none" stroke-linejoin="miter" d="M 0.501917 0.500581 L 58.037325 0.500581 " stroke="#ed5b01" stroke-width="1" stroke-opacity="1" stroke-miterlimit="4"/><path stroke-linecap="round" transform="matrix(0.758847, 0, 0, 0.749174, 198.01104, 120.414848)" fill="none" stroke-linejoin="miter" d="M 0.500214 0.499503 L 37.027691 0.499503 " stroke="#ed5b01" stroke-width="1" stroke-opacity="1" stroke-miterlimit="4"/><g fill="#df2121" fill-opacity="1"><g transform="translate(82.63464, 175.788555)"><g><path d="M 3.359375 0 L 0.890625 0 L 0.890625 -15.6875 L 3.359375 -15.6875 L 3.359375 -8.96875 L 6.15625 -8.96875 L 6.15625 -15.6875 L 8.671875 -15.6875 L 8.671875 0 L 6.15625 0 L 6.15625 -6.71875 L 3.359375 -6.71875 Z M 3.359375 0 "/></g></g></g><g fill="#df2121" fill-opacity="1"><g transform="translate(92.196538, 175.788555)"><g><path d="M 3.15625 -3.609375 C 3.15625 -3.035156 3.269531 -2.632812 3.5 -2.40625 C 3.738281 -2.175781 4.050781 -2.0625 4.4375 -2.0625 C 4.820312 -2.0625 5.128906 -2.175781 5.359375 -2.40625 C 5.597656 -2.632812 5.71875 -3.035156 5.71875 -3.609375 L 5.71875 -12.078125 C 5.71875 -12.640625 5.597656 -13.035156 5.359375 -13.265625 C 5.128906 -13.503906 4.820312 -13.625 4.4375 -13.625 C 4.050781 -13.625 3.738281 -13.503906 3.5 -13.265625 C 3.269531 -13.035156 3.15625 -12.640625 3.15625 -12.078125 Z M 0.6875 -11.921875 C 0.6875 -13.191406 1.007812 -14.164062 1.65625 -14.84375 C 2.300781 -15.519531 3.226562 -15.859375 4.4375 -15.859375 C 5.644531 -15.859375 6.566406 -15.519531 7.203125 -14.84375 C 7.847656 -14.164062 8.171875 -13.191406 8.171875 -11.921875 L 8.171875 -3.765625 C 8.171875 -2.492188 7.847656 -1.519531 7.203125 -0.84375 C 6.566406 -0.164062 5.644531 0.171875 4.4375 0.171875 C 3.226562 0.171875 2.300781 -0.164062 1.65625 -0.84375 C 1.007812 -1.519531 0.6875 -2.492188 0.6875 -3.765625 Z M 0.6875 -11.921875 "/></g></g></g><g fill="#df2121" fill-opacity="1"><g transform="translate(101.064249, 175.788555)"><g><path d="M 0.890625 -15.6875 L 3.359375 -15.6875 L 3.359375 -2.234375 L 7.421875 -2.234375 L 7.421875 0 L 0.890625 0 Z M 0.890625 -15.6875 "/></g></g></g><g fill="#df2121" fill-opacity="1"><g transform="translate(108.655542, 175.788555)"><g><path d="M 0.890625 -15.6875 L 3.359375 -15.6875 L 3.359375 -2.234375 L 7.421875 -2.234375 L 7.421875 0 L 0.890625 0 Z M 0.890625 -15.6875 "/></g></g></g><g fill="#df2121" fill-opacity="1"><g transform="translate(116.246836, 175.788555)"><g><path d="M 3.203125 -5.203125 L 0.09375 -15.6875 L 2.671875 -15.6875 L 4.546875 -8.53125 L 6.4375 -15.6875 L 8.78125 -15.6875 L 5.671875 -5.203125 L 5.671875 0 L 3.203125 0 Z M 3.203125 -5.203125 "/></g></g></g><g fill="#df2121" fill-opacity="1"><g transform="translate(125.114546, 175.788555)"><g><path d="M 6.359375 -8.359375 L 5.46875 0 L 2.078125 0 L 0.34375 -15.6875 L 2.734375 -15.6875 L 4.0625 -3.3125 L 5.25 -15.6875 L 7.625 -15.6875 L 8.84375 -3.21875 L 10.125 -15.6875 L 12.28125 -15.6875 L 10.53125 0 L 7.265625 0 Z M 6.359375 -8.359375 "/></g></g></g><g fill="#df2121" fill-opacity="1"><g transform="translate(137.721918, 175.788555)"><g><path d="M 3.15625 -3.609375 C 3.15625 -3.035156 3.269531 -2.632812 3.5 -2.40625 C 3.738281 -2.175781 4.050781 -2.0625 4.4375 -2.0625 C 4.820312 -2.0625 5.128906 -2.175781 5.359375 -2.40625 C 5.597656 -2.632812 5.71875 -3.035156 5.71875 -3.609375 L 5.71875 -12.078125 C 5.71875 -12.640625 5.597656 -13.035156 5.359375 -13.265625 C 5.128906 -13.503906 4.820312 -13.625 4.4375 -13.625 C 4.050781 -13.625 3.738281 -13.503906 3.5 -13.265625 C 3.269531 -13.035156 3.15625 -12.640625 3.15625 -12.078125 Z M 0.6875 -11.921875 C 0.6875 -13.191406 1.007812 -14.164062 1.65625 -14.84375 C 2.300781 -15.519531 3.226562 -15.859375 4.4375 -15.859375 C 5.644531 -15.859375 6.566406 -15.519531 7.203125 -14.84375 C 7.847656 -14.164062 8.171875 -13.191406 8.171875 -11.921875 L 8.171875 -3.765625 C 8.171875 -2.492188 7.847656 -1.519531 7.203125 -0.84375 C 6.566406 -0.164062 5.644531 0.171875 4.4375 0.171875 C 3.226562 0.171875 2.300781 -0.164062 1.65625 -0.84375 C 1.007812 -1.519531 0.6875 -2.492188 0.6875 -3.765625 Z M 0.6875 -11.921875 "/></g></g></g><g fill="#df2121" fill-opacity="1"><g transform="translate(146.589628, 175.788555)"><g><path d="M 3.15625 -3.609375 C 3.15625 -3.035156 3.269531 -2.632812 3.5 -2.40625 C 3.738281 -2.175781 4.050781 -2.0625 4.4375 -2.0625 C 4.820312 -2.0625 5.128906 -2.175781 5.359375 -2.40625 C 5.597656 -2.632812 5.71875 -3.035156 5.71875 -3.609375 L 5.71875 -12.078125 C 5.71875 -12.640625 5.597656 -13.035156 5.359375 -13.265625 C 5.128906 -13.503906 4.820312 -13.625 4.4375 -13.625 C 4.050781 -13.625 3.738281 -13.503906 3.5 -13.265625 C 3.269531 -13.035156 3.15625 -12.640625 3.15625 -12.078125 Z M 0.6875 -11.921875 C 0.6875 -13.191406 1.007812 -14.164062 1.65625 -14.84375 C 2.300781 -15.519531 3.226562 -15.859375 4.4375 -15.859375 C 5.644531 -15.859375 6.566406 -15.519531 7.203125 -14.84375 C 7.847656 -14.164062 8.171875 -13.191406 8.171875 -11.921875 L 8.171875 -3.765625 C 8.171875 -2.492188 7.847656 -1.519531 7.203125 -0.84375 C 6.566406 -0.164062 5.644531 0.171875 4.4375 0.171875 C 3.226562 0.171875 2.300781 -0.164062 1.65625 -0.84375 C 1.007812 -1.519531 0.6875 -2.492188 0.6875 -3.765625 Z M 0.6875 -11.921875 "/></g></g></g><g fill="#df2121" fill-opacity="1"><g transform="translate(155.457339, 175.788555)"><g><path d="M 0.890625 -15.6875 L 4.796875 -15.6875 C 6.035156 -15.6875 6.957031 -15.359375 7.5625 -14.703125 C 8.164062 -14.046875 8.46875 -13.082031 8.46875 -11.8125 L 8.46875 -3.875 C 8.46875 -2.601562 8.164062 -1.640625 7.5625 -0.984375 C 6.957031 -0.328125 6.035156 0 4.796875 0 L 0.890625 0 Z M 3.359375 -13.4375 L 3.359375 -2.234375 L 4.75 -2.234375 C 5.132812 -2.234375 5.4375 -2.34375 5.65625 -2.5625 C 5.882812 -2.789062 6 -3.191406 6 -3.765625 L 6 -11.921875 C 6 -12.484375 5.882812 -12.875 5.65625 -13.09375 C 5.4375 -13.320312 5.132812 -13.4375 4.75 -13.4375 Z M 3.359375 -13.4375 "/></g></g></g><g fill="#df2121" fill-opacity="1"><g transform="translate(164.593769, 175.788555)"><g/></g></g><g fill="#df2121" fill-opacity="1"><g transform="translate(168.06471, 175.788555)"><g><path d="M 0.890625 -15.6875 L 3.359375 -15.6875 L 3.359375 0 L 0.890625 0 Z M 0.890625 -15.6875 "/></g></g></g><g fill="#df2121" fill-opacity="1"><g transform="translate(172.319417, 175.788555)"><g><path d="M 3.09375 -11.359375 L 3.09375 0 L 0.875 0 L 0.875 -15.6875 L 3.96875 -15.6875 L 6.5 -6.296875 L 6.5 -15.6875 L 8.6875 -15.6875 L 8.6875 0 L 6.15625 0 Z M 3.09375 -11.359375 "/></g></g></g><g fill="#df2121" fill-opacity="1"><g transform="translate(181.881315, 175.788555)"><g/></g></g><g fill="#df2121" fill-opacity="1"><g transform="translate(185.352257, 175.788555)"><g><path d="M 0.171875 -15.6875 L 7.796875 -15.6875 L 7.796875 -13.4375 L 5.21875 -13.4375 L 5.21875 0 L 2.75 0 L 2.75 -13.4375 L 0.171875 -13.4375 Z M 0.171875 -15.6875 "/></g></g></g><g fill="#df2121" fill-opacity="1"><g transform="translate(193.324242, 175.788555)"><g><path d="M 3.15625 -3.609375 C 3.15625 -3.035156 3.269531 -2.632812 3.5 -2.40625 C 3.738281 -2.175781 4.050781 -2.0625 4.4375 -2.0625 C 4.820312 -2.0625 5.128906 -2.175781 5.359375 -2.40625 C 5.597656 -2.632812 5.71875 -3.035156 5.71875 -3.609375 L 5.71875 -12.078125 C 5.71875 -12.640625 5.597656 -13.035156 5.359375 -13.265625 C 5.128906 -13.503906 4.820312 -13.625 4.4375 -13.625 C 4.050781 -13.625 3.738281 -13.503906 3.5 -13.265625 C 3.269531 -13.035156 3.15625 -12.640625 3.15625 -12.078125 Z M 0.6875 -11.921875 C 0.6875 -13.191406 1.007812 -14.164062 1.65625 -14.84375 C 2.300781 -15.519531 3.226562 -15.859375 4.4375 -15.859375 C 5.644531 -15.859375 6.566406 -15.519531 7.203125 -14.84375 C 7.847656 -14.164062 8.171875 -13.191406 8.171875 -11.921875 L 8.171875 -3.765625 C 8.171875 -2.492188 7.847656 -1.519531 7.203125 -0.84375 C 6.566406 -0.164062 5.644531 0.171875 4.4375 0.171875 C 3.226562 0.171875 2.300781 -0.164062 1.65625 -0.84375 C 1.007812 -1.519531 0.6875 -2.492188 0.6875 -3.765625 Z M 0.6875 -11.921875 "/></g></g></g><g fill="#df2121" fill-opacity="1"><g transform="translate(202.191952, 175.788555)"><g><path d="M 6.359375 -8.359375 L 5.46875 0 L 2.078125 0 L 0.34375 -15.6875 L 2.734375 -15.6875 L 4.0625 -3.3125 L 5.25 -15.6875 L 7.625 -15.6875 L 8.84375 -3.21875 L 10.125 -15.6875 L 12.28125 -15.6875 L 10.53125 0 L 7.265625 0 Z M 6.359375 -8.359375 "/></g></g></g><g fill="#df2121" fill-opacity="1"><g transform="translate(214.799324, 175.788555)"><g><path d="M 3.09375 -11.359375 L 3.09375 0 L 0.875 0 L 0.875 -15.6875 L 3.96875 -15.6875 L 6.5 -6.296875 L 6.5 -15.6875 L 8.6875 -15.6875 L 8.6875 0 L 6.15625 0 Z M 3.09375 -11.359375 "/></g></g></g></svg>