<svg xmlns="http://www.w3.org/2000/svg" xmlns:xlink="http://www.w3.org/1999/xlink" width="700" zoomAndPan="magnify" viewBox="0 0 525 267.749983" height="357" preserveAspectRatio="xMidYMid meet" version="1.0"><defs><g/></defs><g fill="#af0303" fill-opacity="1"><g transform="translate(90.270727, 148.312215)"><g><path d="M 42.578125 -55.257812 L 1.300781 -55.257812 L 1.300781 -38.515625 L 4.632812 -38.515625 L 7.3125 -50.378906 L 16.65625 -50.378906 L 16.65625 -4.875 L 9.34375 -3.085938 L 9.34375 0 L 34.535156 0 L 34.535156 -3.085938 L 27.222656 -4.875 L 27.222656 -50.378906 L 36.566406 -50.378906 L 39.246094 -38.515625 L 42.578125 -38.515625 Z M 42.578125 -55.257812 "/></g></g></g><g fill="#af0303" fill-opacity="1"><g transform="translate(140.648396, 148.312215)"><g><path d="M 47.863281 -4.46875 L 32.097656 -56.476562 L 22.671875 -55.257812 L 6.09375 -4.792969 L 0.242188 -3.085938 L 0.242188 0 L 17.632812 0 L 17.632812 -3.085938 L 11.78125 -4.792969 L 15.601562 -17.796875 L 32.992188 -17.796875 L 36.890625 -4.550781 L 31.121094 -3.085938 L 31.121094 0 L 53.304688 0 L 53.304688 -3.085938 Z M 17.0625 -22.671875 L 24.378906 -47.535156 L 24.621094 -47.535156 L 27.546875 -36.078125 L 31.527344 -22.671875 Z M 17.0625 -22.671875 "/></g></g></g><g fill="#af0303" fill-opacity="1"><g transform="translate(200.85765, 148.312215)"><g><path d="M 36.648438 -17.957031 L 34.128906 -5.121094 L 19.421875 -5.121094 L 19.421875 -50.625 L 26.246094 -52.167969 L 26.246094 -55.257812 L 2.679688 -55.257812 L 2.679688 -52.167969 L 8.855469 -50.707031 L 8.855469 -4.550781 L 2.679688 -3.085938 L 2.679688 0 L 40.710938 0 L 40.710938 -17.957031 Z M 36.648438 -17.957031 "/></g></g></g><g fill="#af0303" fill-opacity="1"><g transform="translate(249.285267, 148.312215)"><g><path d="M 46.5625 -3.980469 L 29.902344 -34.777344 L 42.417969 -50.300781 L 49.324219 -52.167969 L 49.324219 -55.257812 L 31.203125 -55.257812 L 31.203125 -52.167969 L 36.078125 -50.542969 L 19.421875 -28.765625 L 19.421875 -50.785156 L 24.945312 -52.167969 L 24.945312 -55.257812 L 2.679688 -55.257812 L 2.679688 -52.167969 L 8.855469 -50.707031 L 8.855469 -4.550781 L 2.679688 -3.085938 L 2.679688 0 L 24.945312 0 L 24.945312 -3.085938 L 19.421875 -4.46875 L 19.421875 -21.777344 L 23.320312 -26.652344 L 28.929688 -14.382812 L 36.566406 0 L 50.949219 0 L 50.949219 -3.085938 Z M 46.5625 -3.980469 "/></g></g></g><g fill="#af0303" fill-opacity="1"><g transform="translate(306.975671, 148.312215)"><g><path d="M 25.757812 -52.167969 L 25.757812 -55.257812 L 2.679688 -55.257812 L 2.679688 -52.167969 L 8.9375 -50.707031 L 8.9375 -4.550781 L 2.679688 -3.085938 L 2.679688 0 L 25.757812 0 L 25.757812 -3.085938 L 19.503906 -4.550781 L 19.503906 -50.707031 Z M 25.757812 -52.167969 "/></g></g></g><g fill="#af0303" fill-opacity="1"><g transform="translate(341.915349, 148.312215)"><g><path d="M 36.160156 -14.953125 L 34.210938 -5.039062 L 19.421875 -5.039062 L 19.421875 -25.921875 L 30.554688 -25.679688 L 31.773438 -20.070312 L 35.105469 -20.070312 L 35.105469 -35.996094 L 31.773438 -35.996094 L 30.554688 -30.632812 L 19.421875 -30.390625 L 19.421875 -50.707031 L 33.234375 -50.707031 L 35.183594 -40.628906 L 38.921875 -40.628906 L 38.921875 -55.257812 L 2.679688 -55.257812 L 2.679688 -52.167969 L 8.855469 -50.707031 L 8.855469 -4.550781 L 2.679688 -3.085938 L 2.679688 0 L 39.898438 0 L 39.898438 -14.953125 Z M 36.160156 -14.953125 "/></g></g></g><g fill="#af0303" fill-opacity="1"><g transform="translate(391.561767, 148.312215)"><g><path d="M 24.378906 -32.339844 C 19.175781 -35.265625 14.546875 -38.839844 14.546875 -44.042969 C 14.546875 -49.082031 17.550781 -52.410156 22.101562 -52.410156 C 24.863281 -52.410156 27.140625 -51.597656 28.441406 -50.707031 L 31.445312 -39.167969 L 34.859375 -39.167969 L 34.859375 -52.65625 C 32.503906 -54.199219 27.382812 -56.476562 21.777344 -56.476562 C 10.480469 -56.476562 4.144531 -49.648438 4.144531 -42.335938 C 4.144531 -33.234375 10.5625 -28.117188 17.796875 -24.132812 C 22.914062 -21.289062 27.382812 -18.527344 27.382812 -12.839844 C 27.382812 -6.90625 23.726562 -3.574219 18.285156 -3.574219 C 14.625 -3.574219 11.703125 -4.714844 9.914062 -6.011719 L 7.152344 -17.957031 L 3.65625 -17.957031 L 3.65625 -2.679688 C 7.230469 -0.8125 12.839844 1.300781 18.285156 1.300781 C 30.878906 1.300781 38.027344 -5.28125 38.027344 -14.625 C 38.027344 -24.785156 30.796875 -28.765625 24.378906 -32.339844 Z M 8.855469 -6.90625 C 8.695312 -7.070312 8.613281 -7.230469 8.53125 -7.3125 Z M 8.855469 -6.90625 "/></g></g></g><g fill="#af0303" fill-opacity="1"><g transform="translate(77.651842, 186.317695)"><g><path d="M 24.25 -21.765625 C 23.539062 -21.710938 23.023438 -21.625 22.703125 -21.5 C 22.390625 -21.375 22.175781 -21.128906 22.0625 -20.765625 C 21.945312 -20.410156 21.890625 -19.832031 21.890625 -19.03125 L 21.890625 -3.359375 C 21.890625 -2.554688 21.945312 -1.972656 22.0625 -1.609375 C 22.175781 -1.253906 22.390625 -1.015625 22.703125 -0.890625 C 23.023438 -0.765625 23.539062 -0.675781 24.25 -0.625 L 24.25 0 C 23.21875 -0.0625 21.617188 -0.09375 19.453125 -0.09375 C 17.316406 -0.09375 15.660156 -0.0625 14.484375 0 L 14.484375 -0.625 C 15.179688 -0.675781 15.691406 -0.765625 16.015625 -0.890625 C 16.347656 -1.015625 16.570312 -1.253906 16.6875 -1.609375 C 16.800781 -1.972656 16.859375 -2.554688 16.859375 -3.359375 L 16.859375 -10.9375 L 8.46875 -10.9375 L 8.46875 -3.359375 C 8.46875 -2.554688 8.523438 -1.972656 8.640625 -1.609375 C 8.765625 -1.253906 8.984375 -1.015625 9.296875 -0.890625 C 9.609375 -0.765625 10.125 -0.675781 10.84375 -0.625 L 10.84375 0 C 9.707031 -0.0625 8.117188 -0.09375 6.078125 -0.09375 C 3.816406 -0.09375 2.148438 -0.0625 1.078125 0 L 1.078125 -0.625 C 1.773438 -0.675781 2.285156 -0.765625 2.609375 -0.890625 C 2.929688 -1.015625 3.148438 -1.253906 3.265625 -1.609375 C 3.390625 -1.972656 3.453125 -2.554688 3.453125 -3.359375 L 3.453125 -19.03125 C 3.453125 -19.832031 3.390625 -20.410156 3.265625 -20.765625 C 3.148438 -21.128906 2.929688 -21.375 2.609375 -21.5 C 2.285156 -21.625 1.773438 -21.710938 1.078125 -21.765625 L 1.078125 -22.390625 C 2.148438 -22.328125 3.816406 -22.296875 6.078125 -22.296875 C 8.117188 -22.296875 9.707031 -22.328125 10.84375 -22.390625 L 10.84375 -21.765625 C 10.125 -21.710938 9.609375 -21.625 9.296875 -21.5 C 8.984375 -21.375 8.765625 -21.128906 8.640625 -20.765625 C 8.523438 -20.410156 8.46875 -19.832031 8.46875 -19.03125 L 8.46875 -11.578125 L 16.859375 -11.578125 L 16.859375 -19.03125 C 16.859375 -19.832031 16.800781 -20.410156 16.6875 -20.765625 C 16.570312 -21.128906 16.347656 -21.375 16.015625 -21.5 C 15.691406 -21.625 15.179688 -21.710938 14.484375 -21.765625 L 14.484375 -22.390625 C 15.660156 -22.328125 17.316406 -22.296875 19.453125 -22.296875 C 21.617188 -22.296875 23.21875 -22.328125 24.25 -22.390625 Z M 24.25 -21.765625 "/></g></g></g><g fill="#af0303" fill-opacity="1"><g transform="translate(103.361363, 186.317695)"><g><path d="M 12.5625 -22.828125 C 14.789062 -22.828125 16.742188 -22.375 18.421875 -21.46875 C 20.097656 -20.5625 21.398438 -19.25 22.328125 -17.53125 C 23.253906 -15.8125 23.71875 -13.765625 23.71875 -11.390625 C 23.71875 -9.066406 23.242188 -7.007812 22.296875 -5.21875 C 21.347656 -3.425781 20.023438 -2.035156 18.328125 -1.046875 C 16.628906 -0.0546875 14.695312 0.4375 12.53125 0.4375 C 10.289062 0.4375 8.332031 -0.015625 6.65625 -0.921875 C 4.976562 -1.828125 3.675781 -3.140625 2.75 -4.859375 C 1.820312 -6.578125 1.359375 -8.625 1.359375 -11 C 1.359375 -13.320312 1.832031 -15.378906 2.78125 -17.171875 C 3.726562 -18.960938 5.050781 -20.351562 6.75 -21.34375 C 8.445312 -22.332031 10.382812 -22.828125 12.5625 -22.828125 Z M 12.421875 -22.265625 C 11.265625 -22.265625 10.242188 -21.796875 9.359375 -20.859375 C 8.472656 -19.921875 7.789062 -18.609375 7.3125 -16.921875 C 6.84375 -15.234375 6.609375 -13.300781 6.609375 -11.125 C 6.609375 -8.9375 6.875 -7.007812 7.40625 -5.34375 C 7.945312 -3.675781 8.675781 -2.390625 9.59375 -1.484375 C 10.507812 -0.578125 11.53125 -0.125 12.65625 -0.125 C 13.8125 -0.125 14.832031 -0.59375 15.71875 -1.53125 C 16.601562 -2.46875 17.28125 -3.78125 17.75 -5.46875 C 18.226562 -7.15625 18.46875 -9.085938 18.46875 -11.265625 C 18.46875 -13.453125 18.195312 -15.378906 17.65625 -17.046875 C 17.125 -18.710938 16.398438 -20 15.484375 -20.90625 C 14.566406 -21.8125 13.546875 -22.265625 12.421875 -22.265625 Z M 12.421875 -22.265625 "/></g></g></g><g fill="#af0303" fill-opacity="1"><g transform="translate(128.84952, 186.317695)"><g><path d="M 11.03125 -21.765625 C 10.28125 -21.710938 9.726562 -21.625 9.375 -21.5 C 9.03125 -21.375 8.789062 -21.128906 8.65625 -20.765625 C 8.53125 -20.410156 8.46875 -19.832031 8.46875 -19.03125 L 8.46875 -2.96875 C 8.46875 -2.289062 8.519531 -1.800781 8.625 -1.5 C 8.738281 -1.195312 8.925781 -0.992188 9.1875 -0.890625 C 9.445312 -0.785156 9.875 -0.734375 10.46875 -0.734375 L 12.015625 -0.734375 C 13.453125 -0.734375 14.691406 -1.375 15.734375 -2.65625 C 16.773438 -3.9375 17.453125 -5.644531 17.765625 -7.78125 L 18.5 -7.78125 C 18.4375 -7.0625 18.40625 -6.132812 18.40625 -5 C 18.40625 -2.96875 18.476562 -1.300781 18.625 0 C 17.195312 -0.0625 14.785156 -0.09375 11.390625 -0.09375 C 6.785156 -0.09375 3.347656 -0.0625 1.078125 0 L 1.078125 -0.625 C 1.773438 -0.675781 2.285156 -0.765625 2.609375 -0.890625 C 2.929688 -1.015625 3.148438 -1.253906 3.265625 -1.609375 C 3.390625 -1.972656 3.453125 -2.554688 3.453125 -3.359375 L 3.453125 -19.03125 C 3.453125 -19.832031 3.390625 -20.410156 3.265625 -20.765625 C 3.148438 -21.128906 2.929688 -21.375 2.609375 -21.5 C 2.285156 -21.625 1.773438 -21.710938 1.078125 -21.765625 L 1.078125 -22.390625 C 2.148438 -22.328125 3.816406 -22.296875 6.078125 -22.296875 C 8.222656 -22.296875 9.875 -22.328125 11.03125 -22.390625 Z M 11.03125 -21.765625 "/></g></g></g><g fill="#af0303" fill-opacity="1"><g transform="translate(148.582314, 186.317695)"><g><path d="M 11.03125 -21.765625 C 10.28125 -21.710938 9.726562 -21.625 9.375 -21.5 C 9.03125 -21.375 8.789062 -21.128906 8.65625 -20.765625 C 8.53125 -20.410156 8.46875 -19.832031 8.46875 -19.03125 L 8.46875 -2.96875 C 8.46875 -2.289062 8.519531 -1.800781 8.625 -1.5 C 8.738281 -1.195312 8.925781 -0.992188 9.1875 -0.890625 C 9.445312 -0.785156 9.875 -0.734375 10.46875 -0.734375 L 12.015625 -0.734375 C 13.453125 -0.734375 14.691406 -1.375 15.734375 -2.65625 C 16.773438 -3.9375 17.453125 -5.644531 17.765625 -7.78125 L 18.5 -7.78125 C 18.4375 -7.0625 18.40625 -6.132812 18.40625 -5 C 18.40625 -2.96875 18.476562 -1.300781 18.625 0 C 17.195312 -0.0625 14.785156 -0.09375 11.390625 -0.09375 C 6.785156 -0.09375 3.347656 -0.0625 1.078125 0 L 1.078125 -0.625 C 1.773438 -0.675781 2.285156 -0.765625 2.609375 -0.890625 C 2.929688 -1.015625 3.148438 -1.253906 3.265625 -1.609375 C 3.390625 -1.972656 3.453125 -2.554688 3.453125 -3.359375 L 3.453125 -19.03125 C 3.453125 -19.832031 3.390625 -20.410156 3.265625 -20.765625 C 3.148438 -21.128906 2.929688 -21.375 2.609375 -21.5 C 2.285156 -21.625 1.773438 -21.710938 1.078125 -21.765625 L 1.078125 -22.390625 C 2.148438 -22.328125 3.816406 -22.296875 6.078125 -22.296875 C 8.222656 -22.296875 9.875 -22.328125 11.03125 -22.390625 Z M 11.03125 -21.765625 "/></g></g></g><g fill="#af0303" fill-opacity="1"><g transform="translate(168.315108, 186.317695)"><g><path d="M 17.109375 -22.328125 C 18.078125 -22.328125 18.878906 -22.359375 19.515625 -22.421875 L 19.515625 -21.796875 C 18.546875 -21.390625 17.535156 -20.164062 16.484375 -18.125 L 12.75 -10.71875 L 12.75 -3.359375 C 12.75 -2.554688 12.804688 -1.972656 12.921875 -1.609375 C 13.035156 -1.253906 13.25 -1.015625 13.5625 -0.890625 C 13.882812 -0.765625 14.398438 -0.675781 15.109375 -0.625 L 15.109375 0 C 13.972656 -0.0625 12.351562 -0.09375 10.25 -0.09375 C 7.988281 -0.09375 6.351562 -0.0625 5.34375 0 L 5.34375 -0.625 C 6.039062 -0.675781 6.550781 -0.765625 6.875 -0.890625 C 7.207031 -1.015625 7.429688 -1.253906 7.546875 -1.609375 C 7.660156 -1.972656 7.71875 -2.554688 7.71875 -3.359375 L 7.71875 -8.703125 L 1.609375 -19.984375 C 0.953125 -21.171875 0.34375 -21.765625 -0.21875 -21.765625 L -0.21875 -22.421875 C 0.707031 -22.316406 1.953125 -22.265625 3.515625 -22.265625 C 5.472656 -22.265625 7.453125 -22.316406 9.453125 -22.421875 L 9.453125 -21.765625 C 8.710938 -21.765625 8.125 -21.691406 7.6875 -21.546875 C 7.257812 -21.410156 7.046875 -21.164062 7.046875 -20.8125 C 7.046875 -20.625 7.125 -20.390625 7.28125 -20.109375 L 12.078125 -10.84375 L 14.546875 -15.78125 C 15.367188 -17.445312 15.78125 -18.753906 15.78125 -19.703125 C 15.78125 -20.421875 15.550781 -20.9375 15.09375 -21.25 C 14.644531 -21.5625 14 -21.742188 13.15625 -21.796875 L 13.15625 -22.421875 C 14.59375 -22.359375 15.910156 -22.328125 17.109375 -22.328125 Z M 17.109375 -22.328125 "/></g></g></g><g fill="#af0303" fill-opacity="1"><g transform="translate(188.427377, 186.317695)"><g><path d="M 28.375 -22.296875 C 29.363281 -22.296875 30.171875 -22.328125 30.796875 -22.390625 L 30.796875 -21.765625 C 30.273438 -21.546875 29.765625 -21.132812 29.265625 -20.53125 C 28.773438 -19.9375 28.359375 -19.09375 28.015625 -18 L 22.453125 0.0625 C 22.222656 0.0390625 21.851562 0.03125 21.34375 0.03125 C 20.84375 0.03125 20.472656 0.0390625 20.234375 0.0625 L 15.59375 -14.046875 L 10.90625 0.0625 C 10.675781 0.0390625 10.304688 0.03125 9.796875 0.03125 C 9.296875 0.03125 8.929688 0.0390625 8.703125 0.0625 L 1.609375 -19.734375 C 1.359375 -20.429688 1.050781 -20.9375 0.6875 -21.25 C 0.332031 -21.5625 -0.0195312 -21.734375 -0.375 -21.765625 L -0.375 -22.390625 C 0.882812 -22.328125 2.453125 -22.296875 4.328125 -22.296875 C 6.097656 -22.296875 7.394531 -22.328125 8.21875 -22.390625 L 8.21875 -21.765625 C 7.476562 -21.648438 7.109375 -21.238281 7.109375 -20.53125 C 7.109375 -20.1875 7.207031 -19.707031 7.40625 -19.09375 L 12.015625 -5.71875 L 15.21875 -15.140625 L 13.59375 -20.046875 C 13.382812 -20.660156 13.132812 -21.085938 12.84375 -21.328125 C 12.5625 -21.566406 12.234375 -21.710938 11.859375 -21.765625 L 11.859375 -22.390625 C 13.035156 -22.328125 14.539062 -22.296875 16.375 -22.296875 C 18.445312 -22.296875 19.96875 -22.328125 20.9375 -22.390625 L 20.9375 -21.765625 C 20.175781 -21.734375 19.625 -21.640625 19.28125 -21.484375 C 18.945312 -21.328125 18.78125 -21.03125 18.78125 -20.59375 C 18.78125 -20.207031 18.882812 -19.707031 19.09375 -19.09375 L 23.4375 -5.875 L 26.4375 -15.4375 C 26.925781 -17.019531 27.171875 -18.238281 27.171875 -19.09375 C 27.171875 -20.007812 26.941406 -20.671875 26.484375 -21.078125 C 26.035156 -21.484375 25.359375 -21.710938 24.453125 -21.765625 L 24.453125 -22.390625 C 25.878906 -22.328125 27.1875 -22.296875 28.375 -22.296875 Z M 28.375 -22.296875 "/></g></g></g><g fill="#af0303" fill-opacity="1"><g transform="translate(219.449537, 186.317695)"><g><path d="M 12.5625 -22.828125 C 14.789062 -22.828125 16.742188 -22.375 18.421875 -21.46875 C 20.097656 -20.5625 21.398438 -19.25 22.328125 -17.53125 C 23.253906 -15.8125 23.71875 -13.765625 23.71875 -11.390625 C 23.71875 -9.066406 23.242188 -7.007812 22.296875 -5.21875 C 21.347656 -3.425781 20.023438 -2.035156 18.328125 -1.046875 C 16.628906 -0.0546875 14.695312 0.4375 12.53125 0.4375 C 10.289062 0.4375 8.332031 -0.015625 6.65625 -0.921875 C 4.976562 -1.828125 3.675781 -3.140625 2.75 -4.859375 C 1.820312 -6.578125 1.359375 -8.625 1.359375 -11 C 1.359375 -13.320312 1.832031 -15.378906 2.78125 -17.171875 C 3.726562 -18.960938 5.050781 -20.351562 6.75 -21.34375 C 8.445312 -22.332031 10.382812 -22.828125 12.5625 -22.828125 Z M 12.421875 -22.265625 C 11.265625 -22.265625 10.242188 -21.796875 9.359375 -20.859375 C 8.472656 -19.921875 7.789062 -18.609375 7.3125 -16.921875 C 6.84375 -15.234375 6.609375 -13.300781 6.609375 -11.125 C 6.609375 -8.9375 6.875 -7.007812 7.40625 -5.34375 C 7.945312 -3.675781 8.675781 -2.390625 9.59375 -1.484375 C 10.507812 -0.578125 11.53125 -0.125 12.65625 -0.125 C 13.8125 -0.125 14.832031 -0.59375 15.71875 -1.53125 C 16.601562 -2.46875 17.28125 -3.78125 17.75 -5.46875 C 18.226562 -7.15625 18.46875 -9.085938 18.46875 -11.265625 C 18.46875 -13.453125 18.195312 -15.378906 17.65625 -17.046875 C 17.125 -18.710938 16.398438 -20 15.484375 -20.90625 C 14.566406 -21.8125 13.546875 -22.265625 12.421875 -22.265625 Z M 12.421875 -22.265625 "/></g></g></g><g fill="#af0303" fill-opacity="1"><g transform="translate(244.937695, 186.317695)"><g><path d="M 12.5625 -22.828125 C 14.789062 -22.828125 16.742188 -22.375 18.421875 -21.46875 C 20.097656 -20.5625 21.398438 -19.25 22.328125 -17.53125 C 23.253906 -15.8125 23.71875 -13.765625 23.71875 -11.390625 C 23.71875 -9.066406 23.242188 -7.007812 22.296875 -5.21875 C 21.347656 -3.425781 20.023438 -2.035156 18.328125 -1.046875 C 16.628906 -0.0546875 14.695312 0.4375 12.53125 0.4375 C 10.289062 0.4375 8.332031 -0.015625 6.65625 -0.921875 C 4.976562 -1.828125 3.675781 -3.140625 2.75 -4.859375 C 1.820312 -6.578125 1.359375 -8.625 1.359375 -11 C 1.359375 -13.320312 1.832031 -15.378906 2.78125 -17.171875 C 3.726562 -18.960938 5.050781 -20.351562 6.75 -21.34375 C 8.445312 -22.332031 10.382812 -22.828125 12.5625 -22.828125 Z M 12.421875 -22.265625 C 11.265625 -22.265625 10.242188 -21.796875 9.359375 -20.859375 C 8.472656 -19.921875 7.789062 -18.609375 7.3125 -16.921875 C 6.84375 -15.234375 6.609375 -13.300781 6.609375 -11.125 C 6.609375 -8.9375 6.875 -7.007812 7.40625 -5.34375 C 7.945312 -3.675781 8.675781 -2.390625 9.59375 -1.484375 C 10.507812 -0.578125 11.53125 -0.125 12.65625 -0.125 C 13.8125 -0.125 14.832031 -0.59375 15.71875 -1.53125 C 16.601562 -2.46875 17.28125 -3.78125 17.75 -5.46875 C 18.226562 -7.15625 18.46875 -9.085938 18.46875 -11.265625 C 18.46875 -13.453125 18.195312 -15.378906 17.65625 -17.046875 C 17.125 -18.710938 16.398438 -20 15.484375 -20.90625 C 14.566406 -21.8125 13.546875 -22.265625 12.421875 -22.265625 Z M 12.421875 -22.265625 "/></g></g></g><g fill="#af0303" fill-opacity="1"><g transform="translate(270.425852, 186.317695)"><g><path d="M 10.84375 -22.390625 C 14.957031 -22.390625 18.035156 -21.457031 20.078125 -19.59375 C 22.128906 -17.726562 23.15625 -15.015625 23.15625 -11.453125 C 23.15625 -9.148438 22.648438 -7.140625 21.640625 -5.421875 C 20.640625 -3.703125 19.195312 -2.367188 17.3125 -1.421875 C 15.425781 -0.472656 13.175781 0 10.5625 0 L 8.609375 -0.03125 C 7.378906 -0.0703125 6.492188 -0.09375 5.953125 -0.09375 C 3.773438 -0.09375 2.148438 -0.0625 1.078125 0 L 1.078125 -0.625 C 1.773438 -0.675781 2.285156 -0.765625 2.609375 -0.890625 C 2.929688 -1.015625 3.148438 -1.253906 3.265625 -1.609375 C 3.390625 -1.972656 3.453125 -2.554688 3.453125 -3.359375 L 3.453125 -19.03125 C 3.453125 -19.832031 3.390625 -20.410156 3.265625 -20.765625 C 3.148438 -21.128906 2.929688 -21.375 2.609375 -21.5 C 2.285156 -21.625 1.773438 -21.710938 1.078125 -21.765625 L 1.078125 -22.390625 C 1.960938 -22.328125 3.238281 -22.296875 4.90625 -22.296875 L 5.875 -22.296875 L 7.140625 -22.328125 C 8.867188 -22.367188 10.101562 -22.390625 10.84375 -22.390625 Z M 10.8125 -21.828125 C 10.15625 -21.828125 9.664062 -21.75 9.34375 -21.59375 C 9.019531 -21.445312 8.789062 -21.179688 8.65625 -20.796875 C 8.53125 -20.421875 8.46875 -19.851562 8.46875 -19.09375 L 8.46875 -3.28125 C 8.46875 -2.53125 8.53125 -1.960938 8.65625 -1.578125 C 8.789062 -1.203125 9.019531 -0.9375 9.34375 -0.78125 C 9.664062 -0.632812 10.164062 -0.5625 10.84375 -0.5625 C 13.394531 -0.5625 15.207031 -1.453125 16.28125 -3.234375 C 17.363281 -5.015625 17.90625 -7.710938 17.90625 -11.328125 C 17.90625 -14.929688 17.347656 -17.582031 16.234375 -19.28125 C 15.128906 -20.976562 13.320312 -21.828125 10.8125 -21.828125 Z M 10.8125 -21.828125 "/></g></g></g><g fill="#af0303" fill-opacity="1"><g transform="translate(295.376422, 186.317695)"><g/></g></g><g fill="#af0303" fill-opacity="1"><g transform="translate(303.155787, 186.317695)"><g><path d="M 10.84375 -21.765625 C 10.125 -21.710938 9.609375 -21.625 9.296875 -21.5 C 8.984375 -21.375 8.765625 -21.128906 8.640625 -20.765625 C 8.523438 -20.410156 8.46875 -19.832031 8.46875 -19.03125 L 8.46875 -3.359375 C 8.46875 -2.554688 8.523438 -1.972656 8.640625 -1.609375 C 8.765625 -1.253906 8.984375 -1.015625 9.296875 -0.890625 C 9.609375 -0.765625 10.125 -0.675781 10.84375 -0.625 L 10.84375 0 C 9.707031 -0.0625 8.117188 -0.09375 6.078125 -0.09375 C 3.816406 -0.09375 2.148438 -0.0625 1.078125 0 L 1.078125 -0.625 C 1.773438 -0.675781 2.285156 -0.765625 2.609375 -0.890625 C 2.929688 -1.015625 3.148438 -1.253906 3.265625 -1.609375 C 3.390625 -1.972656 3.453125 -2.554688 3.453125 -3.359375 L 3.453125 -19.03125 C 3.453125 -19.832031 3.390625 -20.410156 3.265625 -20.765625 C 3.148438 -21.128906 2.929688 -21.375 2.609375 -21.5 C 2.285156 -21.625 1.773438 -21.710938 1.078125 -21.765625 L 1.078125 -22.390625 C 2.148438 -22.328125 3.816406 -22.296875 6.078125 -22.296875 C 8.117188 -22.296875 9.707031 -22.328125 10.84375 -22.390625 Z M 10.84375 -21.765625 "/></g></g></g><g fill="#af0303" fill-opacity="1"><g transform="translate(315.457204, 186.317695)"><g><path d="M 21.921875 -21.765625 C 21.222656 -21.648438 20.707031 -21.46875 20.375 -21.21875 C 20.050781 -20.96875 19.832031 -20.566406 19.71875 -20.015625 C 19.601562 -19.472656 19.546875 -18.660156 19.546875 -17.578125 L 19.546875 0.0625 L 18.78125 0.03125 L 17.9375 0.0625 L 4.203125 -17.328125 L 4.203125 -5.1875 C 4.203125 -3.945312 4.265625 -3.035156 4.390625 -2.453125 C 4.515625 -1.867188 4.785156 -1.445312 5.203125 -1.1875 C 5.628906 -0.925781 6.320312 -0.738281 7.28125 -0.625 L 7.28125 0 C 6.457031 -0.0625 5.316406 -0.09375 3.859375 -0.09375 C 2.703125 -0.09375 1.785156 -0.0625 1.109375 0 L 1.109375 -0.625 C 1.804688 -0.738281 2.316406 -0.921875 2.640625 -1.171875 C 2.960938 -1.421875 3.179688 -1.816406 3.296875 -2.359375 C 3.421875 -2.910156 3.484375 -3.726562 3.484375 -4.8125 L 3.484375 -19.03125 C 3.484375 -19.832031 3.421875 -20.410156 3.296875 -20.765625 C 3.179688 -21.128906 2.960938 -21.375 2.640625 -21.5 C 2.316406 -21.625 1.804688 -21.710938 1.109375 -21.765625 L 1.109375 -22.390625 C 1.785156 -22.328125 2.703125 -22.296875 3.859375 -22.296875 C 4.910156 -22.296875 5.816406 -22.328125 6.578125 -22.390625 L 18.8125 -7.3125 L 18.8125 -17.203125 C 18.8125 -18.441406 18.75 -19.351562 18.625 -19.9375 C 18.5 -20.519531 18.222656 -20.941406 17.796875 -21.203125 C 17.378906 -21.460938 16.695312 -21.648438 15.75 -21.765625 L 15.75 -22.390625 C 16.570312 -22.328125 17.710938 -22.296875 19.171875 -22.296875 C 20.347656 -22.296875 21.265625 -22.328125 21.921875 -22.390625 Z M 21.921875 -21.765625 "/></g></g></g><g fill="#af0303" fill-opacity="1"><g transform="translate(338.700147, 186.317695)"><g/></g></g><g fill="#af0303" fill-opacity="1"><g transform="translate(346.479512, 186.317695)"><g><path d="M 20.296875 -22.390625 C 20.148438 -20.390625 20.078125 -18.597656 20.078125 -17.015625 C 20.078125 -16.023438 20.109375 -15.222656 20.171875 -14.609375 L 19.453125 -14.609375 C 18.941406 -17.203125 18.25 -19.023438 17.375 -20.078125 C 16.5 -21.128906 15.300781 -21.65625 13.78125 -21.65625 L 13.0625 -21.65625 L 13.0625 -3.609375 C 13.0625 -2.722656 13.148438 -2.078125 13.328125 -1.671875 C 13.503906 -1.273438 13.816406 -1.007812 14.265625 -0.875 C 14.722656 -0.738281 15.445312 -0.65625 16.4375 -0.625 L 16.4375 0 C 13.78125 -0.0625 11.78125 -0.09375 10.4375 -0.09375 C 9.101562 -0.09375 7.175781 -0.0625 4.65625 0 L 4.65625 -0.625 C 5.644531 -0.65625 6.363281 -0.738281 6.8125 -0.875 C 7.269531 -1.007812 7.585938 -1.273438 7.765625 -1.671875 C 7.941406 -2.078125 8.03125 -2.722656 8.03125 -3.609375 L 8.03125 -21.65625 L 7.34375 -21.65625 C 6.320312 -21.65625 5.457031 -21.429688 4.75 -20.984375 C 4.050781 -20.546875 3.445312 -19.816406 2.9375 -18.796875 C 2.4375 -17.773438 2.003906 -16.378906 1.640625 -14.609375 L 0.921875 -14.609375 C 0.984375 -15.222656 1.015625 -16.023438 1.015625 -17.015625 C 1.015625 -18.597656 0.941406 -20.390625 0.796875 -22.390625 C 2.710938 -22.328125 5.96875 -22.296875 10.5625 -22.296875 C 15.15625 -22.296875 18.398438 -22.328125 20.296875 -22.390625 Z M 20.296875 -22.390625 "/></g></g></g><g fill="#af0303" fill-opacity="1"><g transform="translate(368.014807, 186.317695)"><g><path d="M 12.5625 -22.828125 C 14.789062 -22.828125 16.742188 -22.375 18.421875 -21.46875 C 20.097656 -20.5625 21.398438 -19.25 22.328125 -17.53125 C 23.253906 -15.8125 23.71875 -13.765625 23.71875 -11.390625 C 23.71875 -9.066406 23.242188 -7.007812 22.296875 -5.21875 C 21.347656 -3.425781 20.023438 -2.035156 18.328125 -1.046875 C 16.628906 -0.0546875 14.695312 0.4375 12.53125 0.4375 C 10.289062 0.4375 8.332031 -0.015625 6.65625 -0.921875 C 4.976562 -1.828125 3.675781 -3.140625 2.75 -4.859375 C 1.820312 -6.578125 1.359375 -8.625 1.359375 -11 C 1.359375 -13.320312 1.832031 -15.378906 2.78125 -17.171875 C 3.726562 -18.960938 5.050781 -20.351562 6.75 -21.34375 C 8.445312 -22.332031 10.382812 -22.828125 12.5625 -22.828125 Z M 12.421875 -22.265625 C 11.265625 -22.265625 10.242188 -21.796875 9.359375 -20.859375 C 8.472656 -19.921875 7.789062 -18.609375 7.3125 -16.921875 C 6.84375 -15.234375 6.609375 -13.300781 6.609375 -11.125 C 6.609375 -8.9375 6.875 -7.007812 7.40625 -5.34375 C 7.945312 -3.675781 8.675781 -2.390625 9.59375 -1.484375 C 10.507812 -0.578125 11.53125 -0.125 12.65625 -0.125 C 13.8125 -0.125 14.832031 -0.59375 15.71875 -1.53125 C 16.601562 -2.46875 17.28125 -3.78125 17.75 -5.46875 C 18.226562 -7.15625 18.46875 -9.085938 18.46875 -11.265625 C 18.46875 -13.453125 18.195312 -15.378906 17.65625 -17.046875 C 17.125 -18.710938 16.398438 -20 15.484375 -20.90625 C 14.566406 -21.8125 13.546875 -22.265625 12.421875 -22.265625 Z M 12.421875 -22.265625 "/></g></g></g><g fill="#af0303" fill-opacity="1"><g transform="translate(393.502953, 186.317695)"><g><path d="M 28.375 -22.296875 C 29.363281 -22.296875 30.171875 -22.328125 30.796875 -22.390625 L 30.796875 -21.765625 C 30.273438 -21.546875 29.765625 -21.132812 29.265625 -20.53125 C 28.773438 -19.9375 28.359375 -19.09375 28.015625 -18 L 22.453125 0.0625 C 22.222656 0.0390625 21.851562 0.03125 21.34375 0.03125 C 20.84375 0.03125 20.472656 0.0390625 20.234375 0.0625 L 15.59375 -14.046875 L 10.90625 0.0625 C 10.675781 0.0390625 10.304688 0.03125 9.796875 0.03125 C 9.296875 0.03125 8.929688 0.0390625 8.703125 0.0625 L 1.609375 -19.734375 C 1.359375 -20.429688 1.050781 -20.9375 0.6875 -21.25 C 0.332031 -21.5625 -0.0195312 -21.734375 -0.375 -21.765625 L -0.375 -22.390625 C 0.882812 -22.328125 2.453125 -22.296875 4.328125 -22.296875 C 6.097656 -22.296875 7.394531 -22.328125 8.21875 -22.390625 L 8.21875 -21.765625 C 7.476562 -21.648438 7.109375 -21.238281 7.109375 -20.53125 C 7.109375 -20.1875 7.207031 -19.707031 7.40625 -19.09375 L 12.015625 -5.71875 L 15.21875 -15.140625 L 13.59375 -20.046875 C 13.382812 -20.660156 13.132812 -21.085938 12.84375 -21.328125 C 12.5625 -21.566406 12.234375 -21.710938 11.859375 -21.765625 L 11.859375 -22.390625 C 13.035156 -22.328125 14.539062 -22.296875 16.375 -22.296875 C 18.445312 -22.296875 19.96875 -22.328125 20.9375 -22.390625 L 20.9375 -21.765625 C 20.175781 -21.734375 19.625 -21.640625 19.28125 -21.484375 C 18.945312 -21.328125 18.78125 -21.03125 18.78125 -20.59375 C 18.78125 -20.207031 18.882812 -19.707031 19.09375 -19.09375 L 23.4375 -5.875 L 26.4375 -15.4375 C 26.925781 -17.019531 27.171875 -18.238281 27.171875 -19.09375 C 27.171875 -20.007812 26.941406 -20.671875 26.484375 -21.078125 C 26.035156 -21.484375 25.359375 -21.710938 24.453125 -21.765625 L 24.453125 -22.390625 C 25.878906 -22.328125 27.1875 -22.296875 28.375 -22.296875 Z M 28.375 -22.296875 "/></g></g></g><g fill="#af0303" fill-opacity="1"><g transform="translate(424.525101, 186.317695)"><g><path d="M 21.921875 -21.765625 C 21.222656 -21.648438 20.707031 -21.46875 20.375 -21.21875 C 20.050781 -20.96875 19.832031 -20.566406 19.71875 -20.015625 C 19.601562 -19.472656 19.546875 -18.660156 19.546875 -17.578125 L 19.546875 0.0625 L 18.78125 0.03125 L 17.9375 0.0625 L 4.203125 -17.328125 L 4.203125 -5.1875 C 4.203125 -3.945312 4.265625 -3.035156 4.390625 -2.453125 C 4.515625 -1.867188 4.785156 -1.445312 5.203125 -1.1875 C 5.628906 -0.925781 6.320312 -0.738281 7.28125 -0.625 L 7.28125 0 C 6.457031 -0.0625 5.316406 -0.09375 3.859375 -0.09375 C 2.703125 -0.09375 1.785156 -0.0625 1.109375 0 L 1.109375 -0.625 C 1.804688 -0.738281 2.316406 -0.921875 2.640625 -1.171875 C 2.960938 -1.421875 3.179688 -1.816406 3.296875 -2.359375 C 3.421875 -2.910156 3.484375 -3.726562 3.484375 -4.8125 L 3.484375 -19.03125 C 3.484375 -19.832031 3.421875 -20.410156 3.296875 -20.765625 C 3.179688 -21.128906 2.960938 -21.375 2.640625 -21.5 C 2.316406 -21.625 1.804688 -21.710938 1.109375 -21.765625 L 1.109375 -22.390625 C 1.785156 -22.328125 2.703125 -22.296875 3.859375 -22.296875 C 4.910156 -22.296875 5.816406 -22.328125 6.578125 -22.390625 L 18.8125 -7.3125 L 18.8125 -17.203125 C 18.8125 -18.441406 18.75 -19.351562 18.625 -19.9375 C 18.5 -20.519531 18.222656 -20.941406 17.796875 -21.203125 C 17.378906 -21.460938 16.695312 -21.648438 15.75 -21.765625 L 15.75 -22.390625 C 16.570312 -22.328125 17.710938 -22.296875 19.171875 -22.296875 C 20.347656 -22.296875 21.265625 -22.328125 21.921875 -22.390625 Z M 21.921875 -21.765625 "/></g></g></g></svg>