<svg xmlns="http://www.w3.org/2000/svg" xmlns:xlink="http://www.w3.org/1999/xlink" width="499" zoomAndPan="magnify" viewBox="0 0 374.25 246.749997" height="329" preserveAspectRatio="xMidYMid meet" version="1.0"><defs><g/><clipPath id="18b83e7310"><path d="M 131 75.066406 L 242 75.066406 L 242 120 L 131 120 Z M 131 75.066406 " clip-rule="nonzero"/></clipPath></defs><g clip-path="url(#18b83e7310)"><path fill="#df2121" d="M 170.714844 80.121094 C 172.121094 80.292969 173.5625 80.433594 175.03125 80.5 C 178.273438 78.335938 182.742188 77.554688 187.703125 77.769531 C 188.367188 76.738281 189.4375 75.597656 191.90625 75.46875 C 199.765625 75.058594 209.324219 77.871094 216.808594 82.074219 C 216.824219 79.796875 216.984375 78.050781 218.601562 78.773438 C 219.605469 79.21875 223.160156 80.648438 222.207031 83.1875 C 223.421875 83.375 229.742188 86.261719 233.089844 90.667969 C 235.011719 90.984375 240.613281 93.242188 241.628906 94.914062 C 242.339844 96.089844 240.179688 97.839844 240.40625 99.945312 C 240.824219 103.765625 239.417969 105.433594 237.433594 105.8125 C 237.164062 107.125 236.386719 108.117188 235.648438 109.128906 C 235.976562 107.898438 236.203125 106.71875 235.800781 105.859375 C 234.035156 105.671875 232.105469 104.792969 230.648438 103.667969 C 229.027344 102.410156 227.84375 102.511719 227.148438 103.207031 C 225.574219 104.777344 226.257812 108.761719 231.109375 111.679688 C 231.984375 111.453125 232.527344 110.464844 233.019531 109.355469 C 232.96875 110.390625 232.953125 111.433594 232.46875 112.414062 C 232.855469 112.601562 233.265625 112.785156 233.695312 112.957031 C 232.519531 114.308594 230.503906 115.996094 228.113281 116.867188 C 226.875 117.320312 226.035156 115.28125 225.230469 113.054688 C 218.976562 111.539062 214.789062 113.410156 210.992188 115.453125 C 212.113281 115.855469 213.28125 116.375 214.507812 117.03125 C 213.15625 116.421875 211.871094 115.964844 210.644531 115.640625 C 206.195312 118.058594 202.21875 120.574219 195.972656 117.917969 C 201.808594 119.761719 205.625 117.589844 209.605469 115.394531 C 196.535156 112.613281 189.925781 124.46875 178.070312 117.21875 C 190.523438 123.277344 196.910156 111.070312 210.0625 115.140625 C 214.105469 112.921875 218.402344 110.832031 225.203125 112.980469 C 224.433594 110.851562 223.691406 108.578125 222.652344 108.179688 C 220.652344 108.367188 215.070312 110.359375 213.074219 113.425781 C 212.132812 112.246094 211.414062 111.066406 210.886719 109.902344 C 209.871094 110.679688 208.839844 111.609375 207.808594 112.710938 C 208.523438 111.230469 209.445312 109.992188 210.496094 108.949219 C 210.109375 107.894531 209.878906 106.863281 209.777344 105.855469 C 209.039062 106.347656 208.269531 106.902344 207.460938 107.523438 C 208.15625 106.515625 208.914062 105.640625 209.71875 104.871094 C 209.695312 103.464844 209.929688 102.128906 210.347656 100.890625 C 209.527344 101.382812 208.679688 101.949219 207.808594 102.609375 C 208.714844 101.539062 209.707031 100.632812 210.753906 99.867188 C 212.289062 96.429688 215.304688 93.964844 218.195312 93.359375 C 215.140625 94.640625 213.089844 96.667969 211.949219 99.0625 C 217.003906 95.945312 222.90625 95.699219 226.109375 95.691406 C 225.363281 96.511719 224.832031 97.375 224.707031 98.269531 C 222.792969 98.285156 217.980469 96.839844 211.460938 100.269531 C 211.070312 101.425781 210.871094 102.644531 210.851562 103.890625 C 215.558594 100.15625 221.316406 99.699219 224.039062 99.714844 C 223.726562 100.441406 223.472656 101.179688 223.410156 101.929688 C 220.660156 101.921875 216.976562 101.414062 210.894531 105.144531 C 210.972656 106.121094 211.15625 107.105469 211.445312 108.085938 C 215.320312 104.855469 220.414062 103.875 223.097656 103.414062 C 222.808594 104.109375 222.726562 104.808594 222.859375 105.511719 C 220.5 105.773438 216.363281 106.09375 211.824219 109.21875 C 212.179688 110.152344 212.625 111.070312 213.164062 111.960938 C 215.960938 108.523438 219.910156 107.855469 222.960938 106.933594 C 225.699219 108.71875 225.886719 115.613281 228.152344 115.410156 C 229.867188 115.253906 230.957031 113.890625 231.671875 113.253906 C 228.378906 111.914062 222.675781 106.160156 226.761719 102.203125 C 229.328125 99.710938 235.03125 98.46875 237.742188 98.6875 C 232.933594 99.402344 229.273438 101.382812 231.339844 102.824219 C 236.867188 106.679688 240.296875 105.433594 239.519531 98.734375 C 239.277344 91.371094 226.582031 89.667969 221.652344 91.558594 C 223.875 90.230469 226.257812 89.785156 228.96875 89.992188 C 228.800781 89.578125 228.46875 89.152344 228.234375 89.019531 C 227.375 88.839844 225.257812 89.125 224.257812 89.378906 C 225.53125 88.597656 227.484375 88.320312 228.402344 88.234375 C 228.851562 88.394531 229.726562 89.164062 230.460938 90.164062 C 230.835938 90.222656 231.214844 90.289062 231.601562 90.367188 C 229.253906 87.589844 224.976562 84.609375 221.296875 83.527344 C 222.386719 81.234375 219.628906 79.953125 218.738281 79.734375 C 217.585938 79.457031 217.589844 85.550781 218.347656 86.257812 C 217.714844 85.828125 216.898438 84.347656 216.792969 82.996094 C 209.972656 79.457031 201.113281 76.097656 191.960938 76.367188 C 190.511719 76.410156 189.503906 77.023438 188.730469 77.828125 C 198.207031 78.484375 209.253906 82.589844 216.929688 87.507812 C 212.308594 85.09375 199.347656 79.5625 188.085938 78.597656 C 187.890625 78.859375 187.710938 79.132812 187.542969 79.398438 C 183.257812 80.679688 179.023438 81.132812 174.839844 80.761719 C 174.390625 81.03125 173.960938 81.332031 173.554688 81.660156 C 173.90625 81.332031 174.285156 81.027344 174.679688 80.746094 C 173.351562 80.621094 172.03125 80.414062 170.714844 80.121094 Z M 154.429688 109.4375 C 163.535156 114.167969 167.234375 105.714844 174.546875 110.675781 C 166.941406 107.113281 163.4375 116.097656 154.429688 109.4375 Z M 140.808594 106.105469 C 153.792969 99.355469 159.066406 111.414062 169.496094 104.339844 C 158.648438 109.417969 153.648438 96.605469 140.808594 106.105469 Z M 131.148438 96.277344 C 138.777344 92.3125 141.875 99.398438 148.003906 95.242188 C 141.628906 98.226562 138.691406 90.699219 131.148438 96.277344 Z M 136.816406 92.625 C 149.800781 85.875 155.074219 97.933594 165.503906 90.859375 C 154.65625 95.9375 149.65625 83.125 136.816406 92.625 Z M 163.546875 116.492188 C 176.535156 109.742188 181.804688 121.800781 192.238281 114.726562 C 181.390625 119.804688 176.390625 106.992188 163.546875 116.492188 Z M 141.046875 103.480469 C 162.390625 92.386719 171.058594 112.207031 188.203125 100.578125 C 170.371094 108.925781 162.15625 87.871094 141.046875 103.480469 Z M 198.191406 86.832031 C 197.660156 86.59375 197.136719 86.375 196.621094 86.171875 C 191.492188 86.800781 187.074219 88.84375 182.695312 90.332031 C 191.421875 87.925781 199.96875 84.101562 211.890625 94.140625 C 191.90625 82.347656 181.136719 101.164062 165.476562 89.667969 C 161.066406 90.617188 156.476562 90.402344 151.035156 87.070312 C 167.425781 93.652344 175.691406 75.929688 193.316406 84.0625 C 198.410156 83.136719 204.109375 83.816406 211.304688 88.660156 C 205.855469 86.191406 201.234375 85.683594 197.085938 86.117188 C 197.449219 86.347656 197.816406 86.582031 198.191406 86.832031 Z M 191.105469 84.5625 C 180.828125 82.6875 173.644531 87.753906 166.003906 89.550781 C 175.855469 92.535156 182.808594 86.816406 191.105469 84.5625 Z M 207.0625 112.898438 C 192.742188 102.679688 183.441406 116.429688 172.332031 106.222656 C 184.425781 114.082031 193.566406 99.378906 207.0625 112.898438 Z M 206.964844 112.980469 C 195.929688 107.980469 191.449219 118.527344 182.585938 113.105469 C 191.804688 116.808594 196.054688 105.636719 206.964844 112.980469 Z M 203.4375 105.617188 C 189.625 99.359375 184.019531 112.558594 172.925781 105.773438 C 184.460938 111.386719 189.777344 98.277344 203.4375 105.617188 Z M 206.847656 98.964844 C 190.355469 91.488281 183.660156 107.25 170.414062 99.148438 C 184.191406 105.851562 190.539062 90.195312 206.847656 98.964844 Z M 208.140625 97.769531 C 189.296875 88.109375 180.59375 106.136719 165.570312 95.925781 C 181.289062 104.535156 189.582031 86.605469 208.140625 97.769531 Z M 175.265625 80.511719 C 179.035156 80.667969 182.996094 80.34375 187.050781 78.867188 C 187.117188 78.765625 187.183594 78.652344 187.25 78.535156 C 182.707031 78.234375 178.488281 78.722656 175.265625 80.511719 Z M 211.910156 94.957031 C 190.566406 85.285156 181.898438 105.683594 164.753906 95.199219 C 182.585938 103.871094 190.800781 83.609375 211.910156 94.957031 Z M 211.910156 94.957031 " fill-opacity="1" fill-rule="evenodd"/></g><g fill="#df2121" fill-opacity="1"><g transform="translate(133.647952, 146.568057)"><g><path d="M 0.566406 -19.8125 L 0.566406 -16.589844 C 0.566406 -16.589844 1.285156 -18.953125 5.378906 -18.953125 L 7.007812 -18.953125 C 7.121094 -18.648438 7.203125 -18.25 7.203125 -17.710938 L 7.203125 -2.117188 C 7.203125 -0.164062 6.152344 0 6.152344 0 L 9.980469 0 C 9.980469 0 8.917969 -0.136719 8.917969 -2.117188 L 8.917969 -17.695312 C 8.917969 -18.25 9 -18.648438 9.109375 -18.953125 L 10.769531 -18.953125 C 14.875 -18.953125 15.582031 -16.589844 15.582031 -16.589844 L 15.582031 -19.8125 Z M 0.566406 -19.8125 "/></g></g></g><g fill="#df2121" fill-opacity="1"><g transform="translate(149.808318, 146.568057)"><g><path d="M 15.914062 0 L 19.742188 0 C 19.742188 0 18.636719 -0.136719 17.835938 -2.117188 L 10.796875 -19.824219 L 9.527344 -19.824219 L 2.476562 -2.117188 C 1.671875 -0.136719 0.566406 0 0.566406 0 L 3.484375 0 C 3.484375 0 2.488281 -0.164062 3.277344 -2.117188 L 5.433594 -7.519531 L 13.964844 -7.519531 L 16.121094 -2.117188 C 16.90625 -0.164062 15.914062 0 15.914062 0 Z M 5.640625 -8.03125 C 5.640625 -8.03125 9.636719 -18.054688 9.675781 -18.207031 C 9.746094 -18.054688 13.757812 -8.03125 13.757812 -8.03125 Z M 5.640625 -8.03125 "/></g></g></g><g fill="#df2121" fill-opacity="1"><g transform="translate(170.102087, 146.568057)"><g><path d="M 14.488281 0 L 14.488281 -2.722656 C 14.488281 -2.722656 13.878906 -0.855469 8.820312 -0.855469 C 5.238281 -0.855469 3.914062 -0.855469 3.914062 -0.855469 C 3.359375 -0.855469 3.332031 -1.5625 3.332031 -2.117188 L 3.332031 -17.695312 C 3.34375 -19.6875 4.394531 -19.824219 4.394531 -19.824219 L 0.566406 -19.824219 C 0.566406 -19.824219 1.617188 -19.644531 1.617188 -17.710938 L 1.617188 -2.117188 C 1.617188 -0.164062 0.566406 0 0.566406 0 Z M 14.488281 0 "/></g></g></g><g fill="#df2121" fill-opacity="1"><g transform="translate(185.170349, 146.568057)"><g><path d="M 3.332031 -5.847656 L 6.125 -9.347656 L 11.144531 -2.117188 C 12.457031 -0.136719 11.488281 0 11.488281 0 L 15.332031 0 C 15.332031 0 14.15625 -0.164062 12.855469 -2.117188 L 7.050781 -10.507812 L 12.773438 -17.695312 C 14.363281 -19.671875 15.527344 -19.8125 15.527344 -19.8125 L 12.609375 -19.8125 C 12.609375 -19.8125 13.535156 -19.644531 11.972656 -17.695312 L 3.332031 -6.84375 L 3.332031 -17.695312 C 3.34375 -19.6875 4.394531 -19.824219 4.394531 -19.824219 L 0.566406 -19.824219 C 0.566406 -19.824219 1.617188 -19.644531 1.617188 -17.710938 L 1.617188 -2.117188 C 1.617188 -0.164062 0.566406 0 0.566406 0 L 4.394531 0 C 4.394531 0 3.34375 -0.136719 3.332031 -2.117188 Z M 3.332031 -5.847656 "/></g></g></g><g fill="#df2121" fill-opacity="1"><g transform="translate(201.24777, 146.568057)"><g><path d="M 0.566406 -19.824219 C 0.566406 -19.824219 1.617188 -19.644531 1.617188 -17.710938 L 1.617188 -2.117188 C 1.617188 -0.164062 0.566406 0 0.566406 0 L 4.394531 0 C 4.394531 0 3.34375 -0.136719 3.332031 -2.117188 L 3.332031 -17.695312 C 3.34375 -19.6875 4.394531 -19.824219 4.394531 -19.824219 Z M 0.566406 -19.824219 "/></g></g></g><g fill="#df2121" fill-opacity="1"><g transform="translate(206.196796, 146.568057)"><g><path d="M 9.609375 -9.816406 L 9.609375 -13.976562 C 9.609375 -13.976562 9.097656 -12.109375 4.785156 -12.109375 L 3.332031 -12.109375 L 3.332031 -17.695312 C 3.332031 -18.25 3.316406 -18.953125 4.230469 -18.953125 C 4.230469 -18.953125 5.238281 -18.953125 8.820312 -18.953125 C 13.878906 -18.953125 14.488281 -17.085938 14.488281 -17.085938 L 14.488281 -19.8125 L 0.566406 -19.824219 C 0.566406 -19.824219 1.617188 -19.644531 1.617188 -17.710938 L 1.617188 -2.117188 C 1.617188 -0.164062 0.566406 0 0.566406 0 L 14.488281 0 L 14.488281 -2.722656 C 14.488281 -2.722656 13.878906 -0.855469 8.820312 -0.855469 C 5.238281 -0.855469 4.230469 -0.855469 4.230469 -0.855469 C 3.386719 -0.855469 3.332031 -1.5625 3.332031 -2.117188 L 3.332031 -11.667969 L 4.785156 -11.683594 C 9.097656 -11.683594 9.609375 -9.816406 9.609375 -9.816406 Z M 9.609375 -9.816406 "/></g></g></g><g fill="#df2121" fill-opacity="1"><g transform="translate(221.265058, 146.568057)"><g><path d="M 15.484375 -5.53125 C 15.402344 -3.664062 13.671875 -0.855469 8.847656 -0.855469 C 4.023438 -0.855469 2.683594 -6.429688 2.683594 -6.429688 L 0.566406 -4.867188 C 0.566406 -4.867188 2.597656 0 8.804688 0 C 15.691406 0 17.417969 -3.179688 17.515625 -5.558594 C 17.777344 -11.875 3.082031 -10.285156 3.289062 -15.125 C 3.386719 -17.585938 5.433594 -19.132812 9.070312 -19.132812 C 13.398438 -19.132812 14.335938 -16.078125 14.335938 -16.078125 L 15.914062 -17.917969 C 15.914062 -17.917969 13.050781 -19.824219 9.097656 -19.824219 C 5.144531 -19.824219 1.878906 -18.015625 1.742188 -14.917969 C 1.492188 -8.890625 15.691406 -10.726562 15.484375 -5.53125 Z M 15.484375 -5.53125 "/></g></g></g><path stroke-linecap="round" transform="matrix(0.754494, 0, 0, 0.7485, 113.922251, 119.869656)" fill="none" stroke-linejoin="miter" d="M 0.501701 0.497704 L 58.037127 0.497704 " stroke="#ed5b01" stroke-width="1" stroke-opacity="1" stroke-miterlimit="4"/><path stroke-linecap="round" transform="matrix(0.758164, 0, 0, 0.7485, 235.839301, 120.428552)" fill="none" stroke-linejoin="miter" d="M 0.500484 0.502519 L 37.029929 0.502519 " stroke="#ed5b01" stroke-width="1" stroke-opacity="1" stroke-miterlimit="4"/><g fill="#df2121" fill-opacity="1"><g transform="translate(125.344756, 165.724459)"><g><path d="M 0.59375 -0.609375 C 0.875 -0.640625 1.125 -0.6875 1.34375 -0.75 C 1.570312 -0.820312 1.796875 -0.921875 2.015625 -1.046875 L 2.015625 -9.90625 C 1.578125 -10.132812 1.066406 -10.28125 0.484375 -10.34375 L 0.578125 -10.9375 L 5.0625 -10.9375 L 4.96875 -10.34375 C 4.363281 -10.269531 3.859375 -10.125 3.453125 -9.90625 L 3.453125 -6.03125 L 7.96875 -6.03125 L 7.96875 -9.90625 C 7.539062 -10.125 7.003906 -10.269531 6.359375 -10.34375 L 6.4375 -10.9375 L 10.921875 -10.9375 L 10.828125 -10.34375 C 10.296875 -10.28125 9.820312 -10.132812 9.40625 -9.90625 L 9.40625 -1.046875 C 9.78125 -0.828125 10.285156 -0.679688 10.921875 -0.609375 L 10.84375 0 L 6.359375 0 L 6.453125 -0.609375 C 7.085938 -0.679688 7.59375 -0.828125 7.96875 -1.046875 L 7.96875 -5.203125 L 3.453125 -5.203125 L 3.453125 -1.046875 C 3.847656 -0.828125 4.382812 -0.679688 5.0625 -0.609375 L 4.984375 0 L 0.484375 0 Z M 0.59375 -0.609375 "/></g></g></g><g fill="#df2121" fill-opacity="1"><g transform="translate(136.753215, 165.724459)"><g><path d="M 3.9375 0.109375 C 2.789062 0.109375 1.921875 -0.226562 1.328125 -0.90625 C 0.742188 -1.582031 0.453125 -2.566406 0.453125 -3.859375 C 0.453125 -5.140625 0.742188 -6.113281 1.328125 -6.78125 C 1.921875 -7.457031 2.789062 -7.796875 3.9375 -7.796875 C 5.082031 -7.796875 5.945312 -7.457031 6.53125 -6.78125 C 7.113281 -6.113281 7.40625 -5.140625 7.40625 -3.859375 C 7.40625 -2.566406 7.113281 -1.582031 6.53125 -0.90625 C 5.945312 -0.226562 5.082031 0.109375 3.9375 0.109375 Z M 3.9375 -0.640625 C 4.644531 -0.640625 5.160156 -0.890625 5.484375 -1.390625 C 5.804688 -1.890625 5.96875 -2.710938 5.96875 -3.859375 C 5.96875 -4.992188 5.804688 -5.804688 5.484375 -6.296875 C 5.171875 -6.796875 4.65625 -7.046875 3.9375 -7.046875 C 3.226562 -7.046875 2.71875 -6.796875 2.40625 -6.296875 C 2.09375 -5.804688 1.9375 -4.992188 1.9375 -3.859375 C 1.9375 -2.710938 2.09375 -1.890625 2.40625 -1.390625 C 2.71875 -0.890625 3.226562 -0.640625 3.9375 -0.640625 Z M 3.9375 -0.640625 "/></g></g></g><g fill="#df2121" fill-opacity="1"><g transform="translate(144.62112, 165.724459)"><g><path d="M 0.484375 -0.609375 C 0.742188 -0.640625 0.945312 -0.679688 1.09375 -0.734375 C 1.25 -0.785156 1.410156 -0.878906 1.578125 -1.015625 L 1.578125 -9.296875 C 1.578125 -9.703125 1.492188 -9.976562 1.328125 -10.125 C 1.160156 -10.269531 0.859375 -10.351562 0.421875 -10.375 L 0.46875 -10.859375 C 0.894531 -10.929688 1.335938 -11.035156 1.796875 -11.171875 C 2.265625 -11.304688 2.550781 -11.390625 2.65625 -11.421875 L 2.96875 -11.265625 L 2.96875 -1.015625 C 3.238281 -0.804688 3.617188 -0.660156 4.109375 -0.578125 L 4.046875 0 L 0.421875 0 Z M 0.484375 -0.609375 "/></g></g></g><g fill="#df2121" fill-opacity="1"><g transform="translate(149.063208, 165.724459)"><g><path d="M 0.484375 -0.609375 C 0.742188 -0.640625 0.945312 -0.679688 1.09375 -0.734375 C 1.25 -0.785156 1.410156 -0.878906 1.578125 -1.015625 L 1.578125 -9.296875 C 1.578125 -9.703125 1.492188 -9.976562 1.328125 -10.125 C 1.160156 -10.269531 0.859375 -10.351562 0.421875 -10.375 L 0.46875 -10.859375 C 0.894531 -10.929688 1.335938 -11.035156 1.796875 -11.171875 C 2.265625 -11.304688 2.550781 -11.390625 2.65625 -11.421875 L 2.96875 -11.265625 L 2.96875 -1.015625 C 3.238281 -0.804688 3.617188 -0.660156 4.109375 -0.578125 L 4.046875 0 L 0.421875 0 Z M 0.484375 -0.609375 "/></g></g></g><g fill="#df2121" fill-opacity="1"><g transform="translate(153.505296, 165.724459)"><g><path d="M 1.734375 3.578125 C 1.304688 3.578125 0.953125 3.457031 0.671875 3.21875 C 0.390625 2.988281 0.25 2.6875 0.25 2.3125 C 0.25 2.019531 0.320312 1.789062 0.46875 1.625 C 0.625 1.457031 0.816406 1.375 1.046875 1.375 C 1.242188 1.375 1.4375 1.4375 1.625 1.5625 C 1.488281 1.738281 1.421875 1.925781 1.421875 2.125 C 1.421875 2.289062 1.46875 2.425781 1.5625 2.53125 C 1.664062 2.632812 1.800781 2.6875 1.96875 2.6875 C 2.207031 2.6875 2.414062 2.566406 2.59375 2.328125 C 2.769531 2.097656 2.941406 1.722656 3.109375 1.203125 L 3.453125 0.125 L 0.78125 -6.421875 C 0.707031 -6.609375 0.582031 -6.757812 0.40625 -6.875 C 0.226562 -6.988281 -0.0351562 -7.078125 -0.390625 -7.140625 L -0.359375 -7.65625 L 3.21875 -7.65625 L 3.15625 -7.15625 C 2.957031 -7.132812 2.78125 -7.097656 2.625 -7.046875 C 2.46875 -7.003906 2.328125 -6.921875 2.203125 -6.796875 L 4.09375 -1.796875 L 5.71875 -6.796875 C 5.476562 -6.984375 5.15625 -7.101562 4.75 -7.15625 L 4.78125 -7.65625 L 7.984375 -7.65625 L 7.953125 -7.15625 C 7.515625 -7.09375 7.210938 -7.019531 7.046875 -6.9375 C 6.890625 -6.863281 6.785156 -6.757812 6.734375 -6.625 L 3.96875 1.375 C 3.695312 2.175781 3.390625 2.742188 3.046875 3.078125 C 2.703125 3.410156 2.265625 3.578125 1.734375 3.578125 Z M 1.734375 3.578125 "/></g></g></g><g fill="#df2121" fill-opacity="1"><g transform="translate(161.405983, 165.724459)"><g><path d="M 0.6875 -6.40625 C 0.613281 -6.625 0.5 -6.78125 0.34375 -6.875 C 0.1875 -6.976562 -0.0859375 -7.070312 -0.484375 -7.15625 L -0.453125 -7.65625 L 3.203125 -7.65625 L 3.140625 -7.15625 C 2.898438 -7.125 2.703125 -7.085938 2.546875 -7.046875 C 2.398438 -7.003906 2.257812 -6.921875 2.125 -6.796875 L 3.703125 -1.703125 L 5.546875 -7.375 L 6.171875 -7.375 L 8.171875 -1.6875 L 9.703125 -6.796875 C 9.492188 -6.960938 9.171875 -7.082031 8.734375 -7.15625 L 8.78125 -7.65625 L 11.890625 -7.65625 L 11.828125 -7.15625 C 11.441406 -7.082031 11.171875 -7.003906 11.015625 -6.921875 C 10.859375 -6.835938 10.753906 -6.722656 10.703125 -6.578125 L 8.390625 0 L 7.390625 0 L 5.640625 -4.765625 L 3.953125 0 L 2.9375 0 Z M 0.6875 -6.40625 "/></g></g></g><g fill="#df2121" fill-opacity="1"><g transform="translate(173.207836, 165.724459)"><g><path d="M 3.9375 0.109375 C 2.789062 0.109375 1.921875 -0.226562 1.328125 -0.90625 C 0.742188 -1.582031 0.453125 -2.566406 0.453125 -3.859375 C 0.453125 -5.140625 0.742188 -6.113281 1.328125 -6.78125 C 1.921875 -7.457031 2.789062 -7.796875 3.9375 -7.796875 C 5.082031 -7.796875 5.945312 -7.457031 6.53125 -6.78125 C 7.113281 -6.113281 7.40625 -5.140625 7.40625 -3.859375 C 7.40625 -2.566406 7.113281 -1.582031 6.53125 -0.90625 C 5.945312 -0.226562 5.082031 0.109375 3.9375 0.109375 Z M 3.9375 -0.640625 C 4.644531 -0.640625 5.160156 -0.890625 5.484375 -1.390625 C 5.804688 -1.890625 5.96875 -2.710938 5.96875 -3.859375 C 5.96875 -4.992188 5.804688 -5.804688 5.484375 -6.296875 C 5.171875 -6.796875 4.65625 -7.046875 3.9375 -7.046875 C 3.226562 -7.046875 2.71875 -6.796875 2.40625 -6.296875 C 2.09375 -5.804688 1.9375 -4.992188 1.9375 -3.859375 C 1.9375 -2.710938 2.09375 -1.890625 2.40625 -1.390625 C 2.71875 -0.890625 3.226562 -0.640625 3.9375 -0.640625 Z M 3.9375 -0.640625 "/></g></g></g><g fill="#df2121" fill-opacity="1"><g transform="translate(181.075741, 165.724459)"><g><path d="M 3.9375 0.109375 C 2.789062 0.109375 1.921875 -0.226562 1.328125 -0.90625 C 0.742188 -1.582031 0.453125 -2.566406 0.453125 -3.859375 C 0.453125 -5.140625 0.742188 -6.113281 1.328125 -6.78125 C 1.921875 -7.457031 2.789062 -7.796875 3.9375 -7.796875 C 5.082031 -7.796875 5.945312 -7.457031 6.53125 -6.78125 C 7.113281 -6.113281 7.40625 -5.140625 7.40625 -3.859375 C 7.40625 -2.566406 7.113281 -1.582031 6.53125 -0.90625 C 5.945312 -0.226562 5.082031 0.109375 3.9375 0.109375 Z M 3.9375 -0.640625 C 4.644531 -0.640625 5.160156 -0.890625 5.484375 -1.390625 C 5.804688 -1.890625 5.96875 -2.710938 5.96875 -3.859375 C 5.96875 -4.992188 5.804688 -5.804688 5.484375 -6.296875 C 5.171875 -6.796875 4.65625 -7.046875 3.9375 -7.046875 C 3.226562 -7.046875 2.71875 -6.796875 2.40625 -6.296875 C 2.09375 -5.804688 1.9375 -4.992188 1.9375 -3.859375 C 1.9375 -2.710938 2.09375 -1.890625 2.40625 -1.390625 C 2.71875 -0.890625 3.226562 -0.640625 3.9375 -0.640625 Z M 3.9375 -0.640625 "/></g></g></g><g fill="#df2121" fill-opacity="1"><g transform="translate(188.943646, 165.724459)"><g><path d="M 3.453125 0.109375 C 2.460938 0.109375 1.710938 -0.203125 1.203125 -0.828125 C 0.703125 -1.460938 0.453125 -2.410156 0.453125 -3.671875 C 0.453125 -5.015625 0.769531 -6.035156 1.40625 -6.734375 C 2.039062 -7.441406 2.957031 -7.796875 4.15625 -7.796875 C 4.632812 -7.796875 5.101562 -7.703125 5.5625 -7.515625 L 5.5625 -9.296875 C 5.5625 -9.703125 5.476562 -9.976562 5.3125 -10.125 C 5.144531 -10.269531 4.847656 -10.351562 4.421875 -10.375 L 4.453125 -10.84375 C 4.960938 -10.9375 5.582031 -11.097656 6.3125 -11.328125 L 6.640625 -11.421875 L 6.96875 -11.265625 L 6.96875 -1 C 7.21875 -0.800781 7.59375 -0.65625 8.09375 -0.5625 L 8.046875 0 L 5.6875 0 L 5.5625 -0.96875 C 5.101562 -0.25 4.398438 0.109375 3.453125 0.109375 Z M 3.609375 -0.59375 C 4.242188 -0.59375 4.726562 -0.847656 5.0625 -1.359375 C 5.394531 -1.867188 5.5625 -2.640625 5.5625 -3.671875 L 5.5625 -6.78125 C 5.363281 -6.882812 5.15625 -6.960938 4.9375 -7.015625 C 4.71875 -7.078125 4.441406 -7.109375 4.109375 -7.109375 C 3.410156 -7.109375 2.867188 -6.804688 2.484375 -6.203125 C 2.097656 -5.609375 1.90625 -4.765625 1.90625 -3.671875 C 1.90625 -2.609375 2.039062 -1.828125 2.3125 -1.328125 C 2.59375 -0.835938 3.023438 -0.59375 3.609375 -0.59375 Z M 3.609375 -0.59375 "/></g></g></g><g fill="#df2121" fill-opacity="1"><g transform="translate(197.467201, 165.724459)"><g/></g></g><g fill="#df2121" fill-opacity="1"><g transform="translate(201.07332, 165.724459)"><g><path d="M 0.5625 -0.59375 C 0.8125 -0.632812 1.007812 -0.679688 1.15625 -0.734375 C 1.3125 -0.785156 1.472656 -0.875 1.640625 -1 L 1.640625 -5.71875 C 1.640625 -6.125 1.550781 -6.398438 1.375 -6.546875 C 1.207031 -6.691406 0.910156 -6.773438 0.484375 -6.796875 L 0.546875 -7.28125 C 0.984375 -7.351562 1.429688 -7.457031 1.890625 -7.59375 C 2.359375 -7.738281 2.628906 -7.820312 2.703125 -7.84375 L 3.03125 -7.671875 L 3.03125 -1 C 3.300781 -0.800781 3.679688 -0.65625 4.171875 -0.5625 L 4.109375 0 L 0.484375 0 Z M 2.15625 -9.0625 C 1.582031 -9.0625 1.296875 -9.378906 1.296875 -10.015625 C 1.296875 -10.648438 1.582031 -10.96875 2.15625 -10.96875 C 2.4375 -10.96875 2.648438 -10.882812 2.796875 -10.71875 C 2.941406 -10.550781 3.015625 -10.316406 3.015625 -10.015625 C 3.015625 -9.710938 2.941406 -9.476562 2.796875 -9.3125 C 2.648438 -9.144531 2.4375 -9.0625 2.15625 -9.0625 Z M 2.15625 -9.0625 "/></g></g></g><g fill="#df2121" fill-opacity="1"><g transform="translate(205.613754, 165.724459)"><g><path d="M 0.5625 -0.59375 C 0.8125 -0.632812 1.015625 -0.679688 1.171875 -0.734375 C 1.328125 -0.796875 1.484375 -0.890625 1.640625 -1.015625 L 1.640625 -5.6875 C 1.640625 -6.09375 1.550781 -6.367188 1.375 -6.515625 C 1.207031 -6.660156 0.910156 -6.742188 0.484375 -6.765625 L 0.546875 -7.25 C 0.878906 -7.3125 1.363281 -7.441406 2 -7.640625 L 2.546875 -7.796875 L 2.828125 -7.65625 L 2.984375 -6.640625 C 3.234375 -6.992188 3.550781 -7.273438 3.9375 -7.484375 C 4.332031 -7.691406 4.734375 -7.796875 5.140625 -7.796875 C 5.941406 -7.796875 6.5625 -7.597656 7 -7.203125 C 7.445312 -6.804688 7.671875 -6.253906 7.671875 -5.546875 L 7.671875 -1.015625 C 7.765625 -0.929688 7.921875 -0.84375 8.140625 -0.75 C 8.359375 -0.664062 8.582031 -0.601562 8.8125 -0.5625 L 8.75 0 L 5.140625 0 L 5.203125 -0.5625 C 5.609375 -0.625 5.96875 -0.773438 6.28125 -1.015625 L 6.28125 -5.390625 C 6.28125 -6.472656 5.8125 -7.015625 4.875 -7.015625 C 4.5 -7.015625 4.140625 -6.882812 3.796875 -6.625 C 3.460938 -6.375 3.207031 -6.046875 3.03125 -5.640625 L 3.03125 -1.015625 C 3.289062 -0.804688 3.671875 -0.65625 4.171875 -0.5625 L 4.109375 0 L 0.484375 0 Z M 0.5625 -0.59375 "/></g></g></g><g fill="#df2121" fill-opacity="1"><g transform="translate(214.760187, 165.724459)"><g/></g></g><g fill="#df2121" fill-opacity="1"><g transform="translate(218.366306, 165.724459)"><g><path d="M 3.375 0.15625 C 2.644531 0.15625 2.144531 0.00390625 1.875 -0.296875 C 1.613281 -0.597656 1.484375 -1.117188 1.484375 -1.859375 L 1.484375 -6.765625 L 0.15625 -6.765625 L 0.15625 -7.265625 C 1.21875 -7.617188 1.921875 -8.28125 2.265625 -9.25 L 2.921875 -9.25 L 2.921875 -7.65625 L 5.015625 -7.65625 L 5.015625 -6.765625 L 2.90625 -6.765625 L 2.90625 -1.734375 C 2.90625 -1.328125 2.957031 -1.035156 3.0625 -0.859375 C 3.164062 -0.691406 3.398438 -0.609375 3.765625 -0.609375 C 4.003906 -0.609375 4.210938 -0.632812 4.390625 -0.6875 C 4.566406 -0.75 4.742188 -0.832031 4.921875 -0.9375 L 5.25 -0.4375 C 5.019531 -0.28125 4.765625 -0.140625 4.484375 -0.015625 C 4.203125 0.0976562 3.832031 0.15625 3.375 0.15625 Z M 3.375 0.15625 "/></g></g></g><g fill="#df2121" fill-opacity="1"><g transform="translate(223.693528, 165.724459)"><g><path d="M 3.9375 0.109375 C 2.789062 0.109375 1.921875 -0.226562 1.328125 -0.90625 C 0.742188 -1.582031 0.453125 -2.566406 0.453125 -3.859375 C 0.453125 -5.140625 0.742188 -6.113281 1.328125 -6.78125 C 1.921875 -7.457031 2.789062 -7.796875 3.9375 -7.796875 C 5.082031 -7.796875 5.945312 -7.457031 6.53125 -6.78125 C 7.113281 -6.113281 7.40625 -5.140625 7.40625 -3.859375 C 7.40625 -2.566406 7.113281 -1.582031 6.53125 -0.90625 C 5.945312 -0.226562 5.082031 0.109375 3.9375 0.109375 Z M 3.9375 -0.640625 C 4.644531 -0.640625 5.160156 -0.890625 5.484375 -1.390625 C 5.804688 -1.890625 5.96875 -2.710938 5.96875 -3.859375 C 5.96875 -4.992188 5.804688 -5.804688 5.484375 -6.296875 C 5.171875 -6.796875 4.65625 -7.046875 3.9375 -7.046875 C 3.226562 -7.046875 2.71875 -6.796875 2.40625 -6.296875 C 2.09375 -5.804688 1.9375 -4.992188 1.9375 -3.859375 C 1.9375 -2.710938 2.09375 -1.890625 2.40625 -1.390625 C 2.71875 -0.890625 3.226562 -0.640625 3.9375 -0.640625 Z M 3.9375 -0.640625 "/></g></g></g><g fill="#df2121" fill-opacity="1"><g transform="translate(231.561433, 165.724459)"><g><path d="M 0.6875 -6.40625 C 0.613281 -6.625 0.5 -6.78125 0.34375 -6.875 C 0.1875 -6.976562 -0.0859375 -7.070312 -0.484375 -7.15625 L -0.453125 -7.65625 L 3.203125 -7.65625 L 3.140625 -7.15625 C 2.898438 -7.125 2.703125 -7.085938 2.546875 -7.046875 C 2.398438 -7.003906 2.257812 -6.921875 2.125 -6.796875 L 3.703125 -1.703125 L 5.546875 -7.375 L 6.171875 -7.375 L 8.171875 -1.6875 L 9.703125 -6.796875 C 9.492188 -6.960938 9.171875 -7.082031 8.734375 -7.15625 L 8.78125 -7.65625 L 11.890625 -7.65625 L 11.828125 -7.15625 C 11.441406 -7.082031 11.171875 -7.003906 11.015625 -6.921875 C 10.859375 -6.835938 10.753906 -6.722656 10.703125 -6.578125 L 8.390625 0 L 7.390625 0 L 5.640625 -4.765625 L 3.953125 0 L 2.9375 0 Z M 0.6875 -6.40625 "/></g></g></g><g fill="#df2121" fill-opacity="1"><g transform="translate(243.363286, 165.724459)"><g><path d="M 0.5625 -0.59375 C 0.8125 -0.632812 1.015625 -0.679688 1.171875 -0.734375 C 1.328125 -0.796875 1.484375 -0.890625 1.640625 -1.015625 L 1.640625 -5.6875 C 1.640625 -6.09375 1.550781 -6.367188 1.375 -6.515625 C 1.207031 -6.660156 0.910156 -6.742188 0.484375 -6.765625 L 0.546875 -7.25 C 0.878906 -7.3125 1.363281 -7.441406 2 -7.640625 L 2.546875 -7.796875 L 2.828125 -7.65625 L 2.984375 -6.640625 C 3.234375 -6.992188 3.550781 -7.273438 3.9375 -7.484375 C 4.332031 -7.691406 4.734375 -7.796875 5.140625 -7.796875 C 5.941406 -7.796875 6.5625 -7.597656 7 -7.203125 C 7.445312 -6.804688 7.671875 -6.253906 7.671875 -5.546875 L 7.671875 -1.015625 C 7.765625 -0.929688 7.921875 -0.84375 8.140625 -0.75 C 8.359375 -0.664062 8.582031 -0.601562 8.8125 -0.5625 L 8.75 0 L 5.140625 0 L 5.203125 -0.5625 C 5.609375 -0.625 5.96875 -0.773438 6.28125 -1.015625 L 6.28125 -5.390625 C 6.28125 -6.472656 5.8125 -7.015625 4.875 -7.015625 C 4.5 -7.015625 4.140625 -6.882812 3.796875 -6.625 C 3.460938 -6.375 3.207031 -6.046875 3.03125 -5.640625 L 3.03125 -1.015625 C 3.289062 -0.804688 3.671875 -0.65625 4.171875 -0.5625 L 4.109375 0 L 0.484375 0 Z M 0.5625 -0.59375 "/></g></g></g></svg>